<mxfile host="app.diagrams.net" modified="2023-08-15T10:25:33.547Z" agent="Mozilla/5.0 (Macintosh; Intel Mac OS X 10_15_7) AppleWebKit/537.36 (KHTML, like Gecko) Chrome/115.0.0.0 Safari/537.36" etag="ma6rTLAavVyExJPdCRtv" version="21.1.2" type="device">
  <diagram id="N0FvH984bCoss3ygGKHd" name="Page-1">
    <mxGraphModel dx="2032" dy="617" grid="1" gridSize="10" guides="1" tooltips="1" connect="1" arrows="1" fold="1" page="1" pageScale="1" pageWidth="1169" pageHeight="827" math="0" shadow="0">
      <root>
        <mxCell id="0" />
        <mxCell id="1" parent="0" />
        <mxCell id="9xqURl-d2IsDU-9S28Iz-5" value="" style="rounded=1;whiteSpace=wrap;html=1;fontSize=24;strokeColor=#000000;strokeWidth=2;arcSize=9;" vertex="1" parent="1">
          <mxGeometry x="-182" y="75" width="280" height="260" as="geometry" />
        </mxCell>
        <mxCell id="Ac1Aeya4IcdopPUhW2M2-1" value="&lt;b&gt;Data Sources&lt;/b&gt;" style="rounded=1;whiteSpace=wrap;html=1;fontSize=24;strokeColor=#000000;strokeWidth=2;horizontal=1;verticalAlign=top;spacingTop=10;" parent="1" vertex="1">
          <mxGeometry x="-1112" y="40" width="590" height="310" as="geometry" />
        </mxCell>
        <mxCell id="Ac1Aeya4IcdopPUhW2M2-38" value="" style="rounded=1;whiteSpace=wrap;html=1;fontSize=24;strokeColor=#000000;strokeWidth=1;dashed=1;" parent="1" vertex="1">
          <mxGeometry x="-802" y="100" width="270" height="240" as="geometry" />
        </mxCell>
        <mxCell id="Ac1Aeya4IcdopPUhW2M2-3" value="&lt;font size=&quot;1&quot; style=&quot;&quot;&gt;&lt;b style=&quot;font-size: 24px;&quot;&gt;Checkita DQ (Jar)&lt;/b&gt;&lt;/font&gt;" style="rounded=1;whiteSpace=wrap;html=1;fontSize=18;imageWidth=60;arcSize=12;imageHeight=60;align=center;spacingRight=12;verticalAlign=middle;spacingLeft=0;fillColor=default;dashed=1;" parent="1" vertex="1">
          <mxGeometry x="-162" y="237.5" width="240" height="80" as="geometry" />
        </mxCell>
        <mxCell id="Ac1Aeya4IcdopPUhW2M2-8" value="&lt;span style=&quot;font-size: 24px;&quot;&gt;&lt;b&gt;Configuration Repository&lt;/b&gt;&lt;/span&gt;" style="shape=document;whiteSpace=wrap;html=1;boundedLbl=1;fontSize=25;dashed=1;" parent="1" vertex="1">
          <mxGeometry x="-162" y="92.5" width="240.5" height="120" as="geometry" />
        </mxCell>
        <mxCell id="Ac1Aeya4IcdopPUhW2M2-14" value="Submit DQ Application" style="verticalLabelPosition=bottom;verticalAlign=top;html=1;strokeWidth=1;shape=mxgraph.arrows2.arrow;dy=0.47;dx=48.94;notch=25.53;fontSize=24;spacingBottom=0;spacingTop=-64;fontStyle=1;rotation=0;flipH=1;" parent="1" vertex="1">
          <mxGeometry x="-502" y="365" width="460" height="90" as="geometry" />
        </mxCell>
        <mxCell id="Ac1Aeya4IcdopPUhW2M2-15" value="Data Quality DB" style="strokeWidth=1;html=1;shape=mxgraph.flowchart.database;whiteSpace=wrap;fontSize=24;verticalAlign=middle;spacingBottom=17;fillColor=#dae8fc;strokeColor=#6c8ebf;fontStyle=1;spacingTop=25;" parent="1" vertex="1">
          <mxGeometry x="193" y="284" width="240" height="140" as="geometry" />
        </mxCell>
        <mxCell id="Ac1Aeya4IcdopPUhW2M2-32" style="edgeStyle=orthogonalEdgeStyle;rounded=0;orthogonalLoop=1;jettySize=auto;html=1;fontSize=24;exitX=0.5;exitY=0;exitDx=0;exitDy=0;endSize=10;strokeWidth=2;exitPerimeter=0;entryX=0.5;entryY=1;entryDx=0;entryDy=0;" parent="1" source="Ac1Aeya4IcdopPUhW2M2-15" target="9xqURl-d2IsDU-9S28Iz-4" edge="1">
          <mxGeometry relative="1" as="geometry">
            <mxPoint x="153" y="35.00000000000023" as="sourcePoint" />
            <mxPoint x="568" y="310" as="targetPoint" />
          </mxGeometry>
        </mxCell>
        <mxCell id="Ac1Aeya4IcdopPUhW2M2-4" value="" style="rounded=1;whiteSpace=wrap;html=1;fontSize=18;image=https://carledwinti.files.wordpress.com/2020/12/hadoop-hdfs.png;imageAspect=0;imageAlign=center;imageWidth=240;imageHeight=80;strokeColor=none;" parent="1" vertex="1">
          <mxGeometry x="-777" y="225" width="220" height="100" as="geometry" />
        </mxCell>
        <mxCell id="Ac1Aeya4IcdopPUhW2M2-23" value="" style="rounded=1;whiteSpace=wrap;html=1;fontSize=24;strokeColor=#000000;strokeWidth=1;dashed=1;" parent="1" vertex="1">
          <mxGeometry x="-1102" y="100" width="260" height="240" as="geometry" />
        </mxCell>
        <mxCell id="Ac1Aeya4IcdopPUhW2M2-24" value="External Databases" style="rounded=0;whiteSpace=wrap;html=1;fontSize=24;strokeColor=none;strokeWidth=1;fontStyle=1" parent="1" vertex="1">
          <mxGeometry x="-1085.5" y="125" width="227" height="40" as="geometry" />
        </mxCell>
        <mxCell id="Ac1Aeya4IcdopPUhW2M2-25" value="" style="strokeWidth=1;html=1;shape=mxgraph.flowchart.database;whiteSpace=wrap;fontSize=24;verticalAlign=bottom;spacingBottom=17;fillColor=#dae8fc;strokeColor=#6c8ebf;" parent="1" vertex="1">
          <mxGeometry x="-1062" y="165" width="80" height="80" as="geometry" />
        </mxCell>
        <mxCell id="Ac1Aeya4IcdopPUhW2M2-26" value="" style="strokeWidth=1;html=1;shape=mxgraph.flowchart.database;whiteSpace=wrap;fontSize=24;verticalAlign=bottom;spacingBottom=17;fillColor=#dae8fc;strokeColor=#6c8ebf;" parent="1" vertex="1">
          <mxGeometry x="-1022" y="205" width="80" height="80" as="geometry" />
        </mxCell>
        <mxCell id="Ac1Aeya4IcdopPUhW2M2-27" value="" style="strokeWidth=1;html=1;shape=mxgraph.flowchart.database;whiteSpace=wrap;fontSize=24;verticalAlign=bottom;spacingBottom=17;fillColor=#dae8fc;strokeColor=#6c8ebf;" parent="1" vertex="1">
          <mxGeometry x="-982" y="245" width="80" height="80" as="geometry" />
        </mxCell>
        <mxCell id="Ac1Aeya4IcdopPUhW2M2-36" value="DataLake" style="rounded=0;whiteSpace=wrap;html=1;fontSize=24;strokeColor=none;strokeWidth=1;fontStyle=1" parent="1" vertex="1">
          <mxGeometry x="-762" y="115" width="180" height="40" as="geometry" />
        </mxCell>
        <mxCell id="Ac1Aeya4IcdopPUhW2M2-37" value="" style="shape=image;verticalLabelPosition=bottom;labelBackgroundColor=default;verticalAlign=top;aspect=fixed;imageAspect=0;image=data:image/svg+xml,PHN2ZyBmaWxsLXJ1bGU9ImV2ZW5vZGQiIHdpZHRoPSIxMjAiIGhlaWdodD0iNjAiIHhtbG5zPSJodHRwOi8vd3d3LnczLm9yZy8yMDAwL3N2ZyIgdmlld0JveD0iMCAwIDEyMCA2MCI+PHBhdGggc3Ryb2tlLXdpZHRoPSIuNjQ5IiBzdHJva2U9IiNmZGVlMjEiIGQ9Ik01OC4wOTIgMTcuNzk0djI0LjQxMmg1Ljk5M3YtMTEuMjJsMS4yMzYuMDIzdjExLjE5N2g2LjA2VjE3Ljc5NGgtNi4wNnY5LjA1N2gtMS4yMzZ2LTkuMDU3em0yMC43NSAwaC01LjgzOHYyNC40MTJoNS44Mzh6bS45NTYgMGw0LjYgMjQuNDEyaDYuOTZsNC42LTI0LjQxMkg4OS43OEw4OC4yNTcgMjguMjRjLS4xMjcuNC0uNTU3LjQtLjYzNCAwbC0xLjUyNy0xMC40NDZ6bTI5IDBIOTcuMjJ2MjQuNDEyaDExLjU4N3YtNi40bC02LjQ0My0uMDU1di0yLjc0NGgzLjA3VjI2LjY1aC0zLjA3di0yLjQ1NWg2LjQ0M3oiLz48ZyB0cmFuc2Zvcm09Im1hdHJpeCguMDQ0NDQ3IDAgMCAuMDQ0NDQ3IDEwLjg2NzMwNSAxMC44NDgyMTYpIj48cGF0aCBmaWxsPSIjZmRlZTIxIiBkPSJNNTAzLjEyNyAxMTkuNzUyYy03LjctMjEuMTE1LTI3Mi45Mi0xMjQuMjItMjc2LjMtMTEyLjktNDguNyAxMi42OTUtNjguNTIgNjguODI2LTEwMi4wMiAxMDQuMzhsLTc0LjM5My00LjI2Yy0zMi43NyA0Mi4xNDItNDkuOTY3IDg1LjItMzguMjU4IDEyOS45NSA0Mi4wMDIgNTYuOTA2IDkwLjc2IDEwNS4zMyAxMjEuMTUgMTc2LjggMi40MDIgMzMuNjkyIDE0NS44MiAzLjUzMyAxNzYuNTYtMy4xMzYtNDEuOTkyIDMwLjA2LTc4LjU2IDc2LjY1LTYyLjg0NiAyMTAuODQgMTQuMzQ2IDYzLjAxNCAyNC4xNiAxMzMuMzcgMTUxLjQgMjA0LjY0IDE2Ljc1IDkuMzgyIDUxLjQwNyAyMC4yMDcgNzIuODM4IDI4LjA5OCAyMC40OTUgOS40IDQ0LjQ2IDEzLjI2NCAxMTIuMDctNy40MTIgMzkuMTI0LTE2Ljg2MyA4MS4zNjUtMjcuMDIyIDExOS42NS00My44NDRsLTQ2LjAxNyAyLjE2Yy02My4zNyAxLjM4LTExMi4zIDYuMTA2LTEyNy4zOC0xMS42bC01OC4zMi0xMDAuNjggMzQtNjYuMDRjNDcuMDU2IDQuODI2IDYyLjY3NSA0Mi45ODYgMTA0LjE1IDU3LjUxOGw0OC44ODUtMzYuMjE1YzE0MiA4My44MTYgMTk4LjQ4LTUzLjEyIDIxNC42Ny0xNTkuNzctMS43MjgtNDMuMzkyLTkzLjk1MiAxMy42LTg4LjM2Mi02LjY4IDIuMTY2LTQ2LjY0NC0zNS44NTQtMTA3LjY3LTYwLjQyLTE1NS4yMmwyOC40My0xMTBjMTIuOS0xMS41LTU5LjcyLTEzMy44Ni0xMTkuMDItMTQ5LjEyLTUyLjAzLTEzLjQtMTMwLjQ2IDUyLjQ5Mi0xMzAuNDYgNTIuNDkyeiIvPjxnIGZpbGw9IiNjOGMwMzciPjxwYXRoIGQ9Ik03MzYuMzg3IDM1My41NWMuNSAxMS44MTYuNDUyIDI2LjE4NyAxLjU5NCAzNS4xNS0uMTk3IDYuODM4LTUuMzIzIDcuMS05LjU2NCA4LjUybDI3LjYzIDEwLjEyYzUuNDg2IDkuMjMgOS44OTQgMTguNDYzIDE0LjM0NyAyNy42OTQgNS4xNjUgMjIuNzA4IDEuMyAyMy4zNTctMi4xMjUgMjUuMDMtMTAuMDI3LjEwMi0yMC4wMjUuMTItMjkuMzU4LTEuODY0IDQuMTggMi4yMDcgNS4xIDMuODE1IDUuNTQzIDYuNjQyLjgxNiA1LjIxMi0yLjU0IDEyLjMzLTguMDY3IDE5LjE4OCA4LjE3MiA0LjUzNCAyMy4wNyA4Ljk3IDM0LjE0IDEzLjE4bDEyLjYyLTI4LjA5M2MtNS43MTUtNDEuMjctMjMuMDQ1LTc5LjMtNDYuNzYtMTE1LjU3em01MS41NyAxMzguNDNjMTUuMzI0IDYuMzg3IDM2LjQ5NSA0LjUxNSA2NS44NDgtMTAuNjEzIDQuMzY1LTMuMTA0IDguNDMtMS4yNS42MiAzLjg1OC0zOC41IDM0LjU0Ny01Ni45MjcgMTcuMjY1LTY2LjQ2NyA2Ljc1NXoiLz48cGF0aCBkPSJNODU2Ljc0NyA0NzYuODRjNC41NTIgOC43MTYgMS43OTQgMTUuODA1LjI2NiAyMy4xNjctNC43NTMgMzcuNDUtMTYuNDIzIDY3LjA1Ni0zOS4zMiA5Ny45OTQtNzQuNDc4IDExOS43NC0xNDkuNjcgNDQuODE3LTIwOS42Mi0zLjk0NmwtMjQuNzk4IDYyLjEzN2MtMS4zMTYgNS40NDYtNi44IDkuNjg4IDMxLjkzNyAyNi43MzhsMzkuNDUyLTI3Ljg2N2MxNTAuNDYgMTE0LjQ4IDI1Ny4wOC0xNjAuMjQgMjAyLjA4LTE3OC4yMnptLTIzMC41MyAxMDdjLTEwLjE1LjcyNC00MC4zNiAxMC45OTctNDEuNzA2IDE2Ljk0NmwxMy45MDItMjAuNzEyem0tMTkuNzQtMTI2Ljk3YzEuODYgMCAxMC43ODggMi4zOTcgOS44MyAxLjg2NC0xLjM3LS43NjMtLjE1MyAxMi41MiAyLjY1NyAxOS40NGwtMTAuODkzIDIzLjdjMjAuODY1LTI0LjA2MyA1My44NTgtMjIuNDYyIDg0LjQ4Ni0yNS41NjRsLTE0LjYxMi05LjA1NGMyLjUzOC04LjQ2Ni0uNDUtMTUuMTY1LTEuODYtMjIuMzY4em01MS4yNy03MS4zN2MtMjIuMzg3IDYuODYzLTQzLjgxNiAxOC4wNzUtNTguMjAzIDQxLjk3NiAxMC45NzYtMzkuMzk1IDEzLjIxMy0zNy45IDE2Ljc1Ny0zOS44NDYgMTUuMzUtNi44NjUgMjcuOTIyLTIuNTg2IDQxLjQ0Ni0yLjEzeiIvPjwvZz48cGF0aCBmaWxsPSIjZmNmNmEwIiBkPSJNNTM4LjE5NyA4NDcuMjVjLTI3LjA3IDI5Ljg3LTg3LjQ3LTIuMjYtMTM3LjYzLTE4LjY0LTEyNy40Ni04MS4wNS0xNTIuMzYtMTU3LjM1LTE1NC4xLTIzMi4yLTYuNTUzLTEwNy4yMiAyNi4zNy0xNjkuNTIgNjguMDE0LTE4NC4yNy0yNy41NiA1My4xMy00MC40IDE0OC41LTI3LjYzIDIxOS40MiAxMC4zMTUgMzkuNDU1IDEwLjUzIDEwNiA3Ni41NDUgMTQxLjYyIDMyLjMyNyAxOC4yIDIzLjU3IDMyLjM2OCA0NS40MyA0OS40MTMgMjMuOTU1IDE4LjY4IDkwLjc0NyAzNi40MzcgMTI5LjM2IDI0LjY1OHptNDAuNDQtNDk1LjVjLTQ1LjgzLTY1LTExMC4zLTg5LjM4Ny0xODIuOTgtOTIuMDUzIDE0LjU2OC00Ljc1IDI5LjEzNi03LjIyMiA0My43MDQtMTQuMjQ2IDMuNTY3LTMuNzQ4IDIuNC0xMC4zNDQgMS4wNjMtMTcuMDQyLTY5Ljk3LTE4LjI3LTExNC4xMy00MC44NS0xNzAuMDMtNjEuNzhsMTUwLjkgMzYuMjE1YzEwMS45IDMuODcyIDkzLjE1OCAyOS4wMzIgMTU3LjM0IDE0OC45em00OS4wNy0zMS4zNWMtMzMuODctNDguMzUtNjYuNzItMTA3LjAzLTExMS4zLTE0NC4zNS0xMDcuNjQtNDguNTg0LTIxNC4xMi04NC42NjYtMzM4LjktMTE3LjVsMzkuODI3LTUxLjIxNmMxMzIuNDIgMzAuMjI3IDI1Ni44IDgwLjgwOCAzNjguMiAxNjQuMiAxOC44NSA0Ny42NiAzMS40MiA5NS4zODMgNDIuMTczIDE0OC44N3ptNjguMjgtODUuNDRzLTE4Ljk4OC00Mi42LTI4LjIzMy01OC44NjZjLTIxLjQ0Ni0yMy43NjYtMzIuMy02OC4wNTQtNzYuMjEzLTg4LjkyMiAxMy44OTIgMy43NSAyMy40LS43MTggNTEuNzYgMjQuOTkybDQ0LjY3IDg0LjczNHptMjMuNjIgNzMuOGM0LjM4LTM2LjkwOCAxMi42OTUtOTYuMSAzLjE1Mi0xMTkuNUw2NDIuNzIgODIuNjNjLTQuNDMtNC4xMjMtNy42Mi05LjcyLTExLjEtMTQuMDg0IDM3LjYgOS43NDQgNzYuODYgMzUuODk0IDEyOS44IDEzOS4xM3oiLz48cGF0aCBkPSJNNTYxLjQ4NyAzMTMuMTJjLTE0Ljk4LTExLjgtMjguMzMtNTMuNS01MS4wMy02Mi4xNi0yMS0xLjc1OC0yOC43MTUtOC4zNjgtNTYuMzQ0LTIuNzQgMTAuMDItNS4wMiAxOS40ODItMTEuNDQ2IDMwLjEzNC0xNC44ODUgNy4yMTUtMS43MDMgMTMuOTgzLjE4NCAyMC44NjcgMS4xMzMgMS43LS44MDQgMi44MTQtMS44MDMgMi4zOTgtMy4zMTMtMjcuODEyLTE3LjE4Ny04NC44NjYtMTcuNDMyLTEyMy4zOC0yNy4yNDMgNDQuNyAxLjQ5NiA5NC4xNTYtLjk4IDEyNy43NSA5LjggMjcuMDEzIDIzLjk3MyAzNS43ODggNjkuMTIgNDkuNjA1IDk5LjQxNXptODEuOS0yMDEuMDkzYzYuMi41NjMgMzkuNTc0IDUzLjM1MyA0MS4xNDIgNjIuMTM3IDIuNzc1IDE5LjIwMiA5LjYyIDQwLjcyOCAxMS40NiA2MC44Mi01LjQ5Ny0xOS4yNy0xMS40ODYtMzguNTM3LTE4Ljk3NC01Ny44MDYtMi4yLTUuMzA2LTcuNzI0LTE3LjMwMi0yMy4xMDctMzQuMjctNy4xNjMtMTEuOTYtOC43LTIxLjM2LTEwLjUyLTMwLjg4em0xMTMuMSAyODcuNTIzSDc0Mi4ybDE1Ljc4IDQuMTQyem0tOTcuNDItMTQuMjVjLTE0LjM1OC0xLjc2NS0yOS4xLTItNDMuNDQ4IDEuMTU2LTUuODUyIDcuODYtNi4yNTUgMTUuODU2LTguODEzIDIzLjI0NSAxNy40NTQtMTkuMjM2IDI0LjM4LTIwLjQxMiA1Mi4yNi0yNC40em0xOTUuODIgOTkuMjdjLTggNi4zNzctOC43ODggMTIuMzgtMzIuNDEzIDE5LjU3Mi0xNy4yMjggNC4wNzQtMjYuOTYtMi44My0zNS4wNy0xMi4xMTYgMTIuMjk0IDMuNTIyIDE0LjI2IDEyLjggNDcuMjI1IDIuMzk3em0tNzEuNiA0Yy01Ljc1IDE1LjgxMi0xMS45NSAzMS44LTE4LjIgNDYuNi0xNC44ODMgMTcuNDU0LTguNTQgNy41MDgtMzAuODIgMzQuNjE3IDcuMTMtMTAuOTk4IDE2LjQtMjEuNTY2IDIxLjI1NC0zMy4wMiAzLjQtNy41NDIgNy42NTMtMTUuNTQzIDkuNTMyLTIyLjI0NC01LjkwNy0yLjk1LTE4LTMuMTgzLTE5LjY0LTIuMTI1LTE5LjgwOCAxMS42ODMtMjMuMzgyIDI0LjA0Ny0zNS4wNiAzNi4wODYgOC40NjQtMTMuNTMgMTUuNjkzLTI4LjI5OCAyNS41MDUtNDAuNDc2IDEuMTE4LTEuNTggOC4zODMtMS44ODYgMTIuODUtMi44Mi02Ljk0LTEuMi0xOS43ODYtMy42ODUtMjAuODItMy41NzItMTIuOTIyIDMuMTA1LTIwLjE2MyAxNC4zNi0yOS43NTYgMjEuODM2IDYuOTk0LTEwLjA5OCAxMy40MzYtMjAuNjEyIDIyLjMxNy0yOS4yOTIuODc4LTEuMDIgMjQuODgzIDEuMDgyIDM3LjMyNCA2LjA0N2wuMjQ3IDQuOTUgNy4wNjMgMi44NSA1LjMxNC0xMy4zMTR6bS0xNTYuNzUgOTUuMzNjLTMuMTg4LTEuMS0zMS4zNS00LjctMzEuMzUtMy44Ni0xMC44MTMgNy42OTYtMTIuNDUzIDE1LjA2LTEyLjIyIDIxLjQzNiAxOC0xNy42OTcgMTcuMzItMTcuNzQ3IDQzLjU3Mi0xNy41NzV6bS0yMS40LTEyNy4zczIwLjMyMi0yLjk2MyAxOS45MjYtMS4wNjVjLTEuNDcyIDcuMDUgMi40ODggMjQuMjMzIDIuOTIzIDIxLjgzNmwtMTEuNDI0IDkuMzJjMjMuOTI2LTEyLjAzIDQ5LjExMy05LjYxMiA3NC42NTYtMTEuNDUgMCAwLTIxLjUwNy01LjkzOC0yMC4xOTItNi4xMjUgNC43OTgtLjY4LTEuMjc3LTIyLjQzLTIuOTIzLTIyLjkgNC4xLTEuMzg1IDguMDg3LTIuNDMgMTIuMjItMy40NjItMzAuNzU2LTguMDQ4LTQ4LjU0LTMuMzA2LTc1LjE4OCAxMy44NDd6Ii8+PHBhdGggZD0iTTc4MS4wMjcgNDcxLjc4bC00LjUxNyAyLjI2M2MtLjY0LTEzLjIzLTE0Ljg1LTEyLjI2LTI2LjgzNC0xMi4zODJsLTkuODMtMi4zOTdjMyAyLjc2NiAxMi4yMyAyLjU1IDguNTAyIDguNTItMy4xMzcgMS42NzctNC41OCA4Ljg3LTYuMzc2IDE0LjkxMmwtNS4zMTQuMjY2IDI4LjQyOCAxMS4xODQgNi4xLjkzMiAxNC42MTItNy44NTZ6Ii8+PHBhdGggZmlsbD0iI2ZmZiIgZD0iTTY0Ni4zMjcgNDYyLjg2Yy0yLjI4Ny00LjUyNS0xMy43OTQtMy44ODItMTYuMjc1LS45NTUtMi4wMTYgMi4zOC0uMTI1IDE3LjY0MiAyLjQ2IDE1LjA2OCAzLjczNy0zLjI4NSA4LjYxOC00LjY2IDE0LjQ4LTQuMzk0Ljc0LTIuODIuNDc3LTUuODY1LS42NjQtOS43MnptMTEwLjM1IDIyLjc0YzEuMDgyLS44IDMuMzctOC40NDMgMi42My0xMC43MzMtMS41MTItNS40MDMtMTIuMjEyLTQuMjY2LTEyLjIxMi00LjI2Ni0yLjYgMS41MzYtNC45IDkuOTYtMy45NDUgMTIuNzQuNDU1IDIuMzUzIDExLjggMy4xMDMgMTMuNTI2IDIuMjZ6Ii8+PHBhdGggZD0iTTI5OS4xMDcgNzQ5LjY0bDYuNzYuNjZjNDAuMDcgMTkuNjc1IDEwNi4wNSA0OC44NDcgMjAxLjU3IDMzLjE3bDE0Ljk4OCAyMy41ODRjLTQyLjA2NyAyMC40NDItODcuMzEyIDE1LjczOC0xMjkuNyAxNy4xNzJ6bS01Ny41My0xNTUuNTRsMjAuMDczIDg0LjI2OGM1My43NCAzMy41OTMgMTQ1LjU0IDcyLjA3IDIyMi4wNiA2OC45NjVsLTE2LjktMzguOGMtMTU5LjczLTMzLjkyLTE3My4yNC03Ni44LTIyNS4yMi0xMTQuNDR6bTQ5Ljk1LTE3Mi42YzkuOCA2NS4zMDIgMjIuOTA3IDExNC44IDc5LjcgMTU2LjI4IDM0LjgwNCAyNS4wMyA2OS4zNSA0OS45NTQgMTExLjM3IDcwLjUyNCAwIDAtMy42ODQgMTkuMTctNi43NjMgMTguODMtMTI1LjA1LTEzLjktMjE2LjYtMTE3LjU4LTIyNy43LTE2NC45NCAxMC43NC0zNi4zMyAyNi4xNS01OS4wMiA0My40LTgwLjY5M3ptNjAuMS0zN2MxNi42NjQgNzIuMzc2IDU2LjM5NyAxNDUuNjggOTUuOSAyMTIuMTggMTQuNDc3IDE4LjM3IDE4LjI2NiAyNi40NzUgNDAuNTggMzcuNjYgMzAuMTYgOS41NSA1MS40ODYgNy4xMTIgNzMuMzc3IDUuNjc2LTUuOTk4LTExLjEwMi0xMS4zMy0yMi43MDYtMTguMjE3LTMzLjE0LTQ5LjAxOC0zOC43NjUtMjYuMzY0LTc0LjA2LTEzLjM0NC05Ni40MDYtMjcuMjU2LTYuODg3LTYzLjM3LTIxLjUyNS02OC4zNDUtNDAuNzc4LTgtNjIuMjctMy45MzctODIuMDI1IDQuMDctMTE0LTM2LjkgNy43ODItNzQuMyAxNS40OTQtMTE0IDI4LjgyeiIvPjxwYXRoIHN0cm9rZS13aWR0aD0iLjExNCIgc3Ryb2tlPSIjMDAwIiBkPSJNMjE2LjIzNy4wNThjLTEyLjEzIDcuOTI1LTIzLjgxOCAxOS4yNTYtMzYuNCAzMi4xMzUtMjAuODQzIDIxLjU3NS0zNC43IDQyLjYyLTU1LjkxNSA1OC4yMjQtNC4yNDMgMy42Ni0xNi4xNSA5LjU1LTMxLjEyIDEwLjQyNS03LjA1Mi4zNTItMTEuNjQ2IDEuNTItMjQuNjA0LS4xMDgtMTEuNDI4LTYuMTg4LTIyLjI4NS0yLjE2NC0zMi44OCAxMC41LTExLjYyIDE2LjctMjYuMzM0IDQ4LjQzNy0zMi40NTMgNjguNC0xMi42IDUwLjkzNyAxOS41NCA5Mi45MDUgNTAuMzc0IDEyNS4yNSAyNy40MyAyNi43OTYgNDMuMjQzIDQzLjU0MiA1NC41MDUgNjguMTA3IDguNTI3IDE1LjkzMyAxNC44NDQgMzcuOCAyMS42ODMgNTMuMTMgMi40NjYgNC44NiAxLjk1MyA0LjgzNSA4LjYgNi4zIDE0LjMzMyAzLjA2IDM0LjIxNSAzLjA4MyA1MS45MTUgNC42MDQgNy42NTguMTA3IDE4LjE3NS0uMTc4IDI4LjE0LTEuMjE3IDEzLjczLTIuNTkzIDI5Ljg2My01LjEzMyA0My4zODQtOS44IDEzLjIxMy0zLjI1NCAyNC45ODUtNy43NiAzNS41OTctMTEuOTA3LTEuMzcgNC42NDQtMTEuNDc4IDkuMTE1LTE1LjI2OCAxNS4wMDItMzUuOTcgNTEuNS00NS44MjMgOTcuMzA4LTM5LjU2IDE2OS42IDMuNTQyIDMyLjA0MiAxMC44OTYgNTguNjA1IDIxLjk5MiA4OC45OTcgNS4wNzcgMTMuOTA4IDE1Ljg4MiAzNS45MzQgMjYuMjM2IDUwLjU2NSAzMC44IDQzLjUwNiA5OS42NzIgOTkuMzc0IDE5NS41NiAxMjAuODggMTYuNzMgMi4yODcgMzUuNzE1IDEuMDY3IDUzLjU3LTMuNjg4IDQ3LjMyNi0xNC4zNDYgMTQzLjc4LTQ4LjI3NSAxNDMuNzgtNDguMjc1cy04NS42MiA3LjA4My0xMjQuODMgMy4yMDZjLTkuMDc4LTEuNDItMTkuMDgtMS45LTI1LjQwNS04LjA4Ny0xLjA2LTEuMzctNC45MTQtOS4xMzItMi40MjYtOS4yMDIgMy4zOTUtLjA5NSAxMy4xNDItNC4xNCAyOC4yLTUuNDgyLTMyLjEzLTMuNDYtMzEuNjctMy40MTgtMzQuMDE2LTkuMjctMy42NDctOS4wODUtOS4yMy0yMS41MDItMTQuOTc3LTMyLjM2NyAxNC4xMTggMS4yIDQ1LjM3NiAyLjk0NiA1NS45ODQtOC4wMDMgMCAwLTE4LjQ5NyAyLjEzNi0zNC44NDMuMjE4LTUuNTA3LS42NDYtMTQuOS0zLjk5NS0xNy43LTUuMDMtNy4zMzgtMi44NTgtMTMuMzgtMy43NDYtMTQuNzg4LTUuNi0yLjU0OC02LjQ4Ni00LjI3NS04LjY2Ny03LjM1LTE3LjM1Ni00LjE2Ni0xMS41MDQtNC40OTYtMjQuMzM3LTUuMy0zNi4wODMgMTAuNjkzIDEzLjE4IDI0LjMxOCAyNC4yNzUgNDIuMzU2IDI5Ljk0LjIzLS40ODggMjMuNCAxMC4wNzIgNDAuMjI2IDQuNjQybDMuNS0xLjEyNWMwIC4zLTExLjE0OC45NzctMTUuMjM3LTEuMDQ3LTM0LjIyLTE0LjU0NS0zOS4zNy0yNy4yNzYtNDQuODk1LTMzLjZsLTE0Ljc3Ny0yMi4xMzNjNC40OTQtOC45NiA3LjAzNS05LjMgMTMtOS4zODQgMTggMiAyNS44NDggMy41NCAzNi44MDcuODk2IDcuNDA1IDE1LjI0IDkuNDA2IDMwLjU3IDI2LjI2NSA0MS42NjIgNTYuMTY2IDE2LjY3MiA2OC4zNy00Ljk1IDgxLjk3My0yNC4wNTcgNDAuNDEyIDI5LjY1OCAxMDYuMiAzOC44MDMgMTUxLjkuNTE1IDU4LjA4Ni02Ny4yMTIgNzYuNDc2LTE3My4xNyA3MS4zMjUtMTc5LjIyLTcuMjU0LTEyLjMwNy0xNi43NzItMjUtMjQuOTQ1LTIzLjI0NS0yOS4xMyA3Ljk1Mi0zOS44NyAyMi43My02OC43MzUgMTkuMzYgMy40MzgtLjE5NCA5LjIyLS4yODcgOS4yNjMtLjYxNSAyLjIyNC0yNC40NC0uMTgtMzYuMjY3LTEuMjUyLTM4LjI5Ny04Ljc2LTE5LjMxNy0yMC4yNi0zOS42NDYtMjguMjc4LTU0Ljg4LTIuMDY3LTMuMTYtOC4xMzctMjcuMTY1LTE4LjMwOC0zNi42NDgtNC4zNjItMy43MjUtMTUuMDQtMTMuNTQ2LTE1LjA0LTEzLjU0NmwtLjkwNSAxMC40NHM0LjE3NC42MyA1Ljc2MiA3LjA5N2M2LjAyMiAyNC41MTcgMzYuNjg3IDgyLjQ4NSAzOC45MzggODUuMjYzIDEwLjg2OCAxNy41NDUgMS4xMDUgMzkuNCA5LjM2NyA1MS42NjMuNzk0IDEuNTU4IDE2Ljg1Ny0uMTM3IDI5LjMwNy42MjggMjAuNDczLTQuNDAzIDE5LjYtMTMuNDI2IDM3LjI5NC0xNC43ODIgMTEuOTEzLS45MTMgMTMuMTA4IDIxLjQ2IDEyLjk1IDIzLjE5Ni0yLjIyIDI0LjcwNC05LjczNSA1My40MjctMjEuMjM2IDc5LjY1OC0yMy45MTIgNDYuMDctNTAuNyA4Ny40NDYtODguNjcgOTMuMjE2LTQ2LjMyNiA4LjA5NS03MC40LTEyLjE1OC05NS41MTItMjUuMDU1bC05LjYwNyA4LjE5M2MtMzIuNjM3IDMyLjUtNzEuNCAyOS42MTQtODcuMjQtMTIuODUtNy45LTE2LjQ3My0xOC4xNzItMjYuNTctMjYuOTc2LTQwLjdsLTQ2LjY4OCAzMy42MjdjLTMuODg2IDcuOTctOC42NjUgMjAuNTQtMTQuNDcgMzQuNTgtNC4wMzYgOS43Ni03LjQyIDI2LjUyNS03LjIgNDAuNDU2LTUuOTg1IDEwLjE5NSAyMC43MyA1MS41NDIgMzcuNiA3Ni42OTJsMTQuNiAyMS4xOTNjMy4zNDggOC42ODMgMTAuNjggMTYuMzUgMTEuMTI0IDE3LjI4NCAzMS4zMzcgNDAuODcyLTM5LjUzIDMxLjQ2LTU0LjE2NyAyOS0yOC44NzYtNC42LTU3LjEyLTE2LjY2My04My42Ny0zMi43OTJsLTQuNjA1LTIuODQ4Yy0zMS41NS0xOS44NjYtNjAuNTgtNDUuMjgzLTg1LjI2NC03MC40MjMtMTQuNzE4LTE2LjY2Ni0yOC43MzItNTAuODI3LTM5LjA4My03NS4wNDUtMTUuNTEzLTU4LjIyNi0zNy43NzYtMTU5LjE1IDIyLjUzMi0yMzUuNjMgMy44MjMtNC4zNzIgNy45NDgtMTEuNjUgMTEuNDYtMTMuMSAxNy45MTgtMTIuMTIgMzcuMzc1LTIwLjM4IDU4LjI5OC0yNC45NjZsLTIuMTEyLTEzLjU2M2MtMTAuNDUgMi4zNzQtNDUuNjMzIDE1LjI0My01NS41OCAyMC42My0yMi42MjMgNi41NTgtNDEuMzg4IDEzLjQwNi03MC4yMiAyMC42MjUtOS4zNzIgMS4xNDctMTguNTkyIDEuMTY3LTI3LjU4LS4wNTMtMjAuNzQtMi44MTgtNTYuMDk0LS4zLTU4LjM1LTIuMzk2LTE0LjA0NC0xOS41ODUtMTcuOS01NC42NzYtMzAuNzAzLTczLjQ1NmwtLjE1LS4xODctLjE2Mi0uMTc4Yy03LjQ3LTEwLjA0LTE2LjE3Ny0xOC4yMy0yNC43NTItMjYuNzUtMzAuNzA4LTMwLjUtNTctNjAtNjQuMzQ4LTkxLjI3LTEuODUtOS4yMy02LjYxNC0xOC44LTQuMDgyLTQ2LjFsLjA0Ny0uMTM0LjA0NC0uMTM0YzcuMzg4LTI1LjUxMyAxOS40MDctNDYuMyAzOS44MDYtNjcuMTUzIDIxLjIyOC4zNDMgNDIuMjQuOCA1OC42MDcgMy45MzYgNy41IDEuMjU2IDIzLjEyNCAzLjI5NiAzOS4yNTIgOS4zMDQgNDAuODIyIDE1LjIwNyA5NC43NiA0MC4yIDk0Ljc2IDQwLjItNDAuNDg4LTIyLjIzNi04NS43Ni01MS4xMTUtMTE0LjM1LTU2Ljk0My00LjI1NC0uNjAyLTYuODY4LTIuNTQzLTguMTMtNS45MyA0My0yNS4yNjQgNTAuODY1LTU1IDc5LjE0Ny04MS42ODYgMTIuOTI1LTUuNjI2IDE3Ljk2NS04LjQ5OCAyOC45NDctOS42OTIgMTAxLjU3IDE2LjA2IDE2NS41IDU2LjUxNSAyMTYuMSA4My41NjYgMjAuNTMgMTEuMTY0IDM5LjIgMTkuNjA2IDU3LjAxNSAyOS43NzMgMTUuNjI0IDUuMTQgNjIuNzcgNDAuNzM0IDc2LjU3IDU5LjkyNSAxNC4wMTcgMjkuNTk1IDI0LjI1IDYxLjU2MyAzMy41ODUgOTIuNCA2LjY5MyAzMS4zNzUgMTIuNTY0IDQ0LjEwMiAxMi41NjQgNDQuMTAycy01LjY4OC0yNi4yNDMtNC43NC0zMC45NThjNS44OTggMi4yMDQgMTkuODQgNi41NTcgMjUuNjIgNS44OCAwIDAtMjUuODE4LTEzLjM0Ni0yOS4yLTI1LjE0LTEwLjg1Ni0zNy44NDctMjEuNzQ0LTk2Ljc2NS0yNC42OC05OS44MzctOC4yNzQtMTAuNC00Mi43NzctMzYuODE2LTYzLjk0LTQ5LjAzLTguMDA2LTQuNjItMTIuMzMzLTcuNDg3LTEyLjY3LTkuNTE4IDYuNzYtNi44MyAxNS4xLTE1Ljg2NSAyMi41OTgtMjEuNjA2IDcuMTc3LTUuNTAzIDEzLjctMTEuNyAyMy43MTMtMTUuNDIzIDQzLjk2My0xOS44IDY5LjEgNy42MTggNzUuMDY2IDIuMDY2IDAgMC05LjQ1OC0xMC44NC01LjI1Ny05LjA1NiA0LjMwMiAyLjMzIDE4LjMyMyA1LjA3OCAxOS44NjIgNi41IDE2LjAyMyAxMi41MzQgNTcuOTEzIDU4LjM0NCA4My4xNiAxMDYuNjggNi4wNjQgMTEuODQgOC41MyAxOS42MzYgNS43MTYgMzMuODkzLTIuODIgMTQuMjctNS4wMDIgMjIuMTE3LTguMDc4IDMxLjY0Ny0yLjc3OCA2LjM3LTE4LjQ5OCA0OS45ODgtMTguNDM3IDU1Ljg0OC0zLjE2NyAyMy45MzIgMTAuMjY0IDUzLjg5MyAxMC4yNjQgNTMuODkzLjEyNy04LjEzMy0uNS0xMi40NjYuMjM3LTE4LjI4MmwuOTA0LTEwLjM5M3MtLjU3My0yLjc2NC0uNDctMy44NmMuNjgyLTcuMTg3IDIuNDQ1LTEzLjIzIDIuOTYyLTE3LjM0NSA1LjA0OC0zMS4yNTUgMTMuODIyLTUzLjc1NSAyMy43NzUtODEuMTgyIDIuOTU4LTYuOTIyIDYuODI4LTEwLjc3IDYuNjMtMTYuMDQuMTYzLTkuMzUyLTguMjA1LTIxLjkwNC0xNC4yNTItMzQuMTYzLTYuMS0xMi40LTEzLjQtMjYuMjAyLTIyLjk2LTQwLjc2LTIxLjgyLTMxLjM3Ni00MC40Mi01NS45MjUtNzQuNDgtNzEuMy05LjUzLTQuMTgyLTQ3LjAzLTguMjctNTkuOTgtNS44NC0xNS43IDMuMjczLTI5LjIyIDYuNS00MCAxMy4zOTgtMTYuOTUgMTAuODU0LTMwLjI3IDI3LjY2LTQ1LjkgMzcuNTYtMzQuNTYtMTcuMjgyLTUxLjI0LTMwLjIxNi01NC4zNS0zMi0yMC41NC0xMS4wMDYtNDUuMi0yMy43NzgtNzEuNzMtMzUuOS0xMi43Mi0xMS44NjItOTEuNy00MC4yMzMtMTY0LjA0LTQ1Ljg5MnptNDQyLjA4IDY0NC42Yy0yMS4zLTE2LjY1LTM5LjIzLTMzLjgtNTEuMDUtNTEuNDQtMy44NTggMjAuNzU4LTE3Ljg2NCAzNS41NDItMjguNjg4IDUwLjA4My0yLjE1NSAzLjQtMy43MDggOC4wNiA2LjkwMiAyMi44OCAyLjg2IDMuOTQ4IDEzLjIwNyA0LjYyMyAyMC4xOTIgNC4yNi03LjEwNi01LjM3Mi0xNy45MTgtMTEuMDUzLTE5LjY2LTE1Ljk3NyAxMi41IDguNSAyNC4wNzYgMTAuOTU3IDM0LjUzOCA5LjU4NiAyLjQtLjI3IDUuMzYtMi44MDQgNy42NTUtNi43MDYgNC42NjQtMTAuMDIgOC4zMTUtMTIuNDMzIDEyLjAwNS0xNS4xM2w4LjUwMiAxMC42NXoiLz48L2c+PC9zdmc+;" parent="1" vertex="1">
          <mxGeometry x="-752" y="155" width="160" height="80" as="geometry" />
        </mxCell>
        <mxCell id="Ac1Aeya4IcdopPUhW2M2-39" style="edgeStyle=orthogonalEdgeStyle;rounded=0;orthogonalLoop=1;jettySize=auto;html=1;exitX=0.5;exitY=1;exitDx=0;exitDy=0;" parent="1" source="Ac1Aeya4IcdopPUhW2M2-1" target="Ac1Aeya4IcdopPUhW2M2-1" edge="1">
          <mxGeometry relative="1" as="geometry" />
        </mxCell>
        <mxCell id="Ac1Aeya4IcdopPUhW2M2-40" style="edgeStyle=orthogonalEdgeStyle;rounded=0;orthogonalLoop=1;jettySize=auto;html=1;fontSize=24;exitX=1;exitY=0.5;exitDx=0;exitDy=0;endSize=10;strokeWidth=2;entryX=0.693;entryY=0.236;entryDx=0;entryDy=0;entryPerimeter=0;spacingLeft=0;" parent="1" source="Ac1Aeya4IcdopPUhW2M2-1" target="Ac1Aeya4IcdopPUhW2M2-14" edge="1">
          <mxGeometry relative="1" as="geometry">
            <mxPoint x="-142" y="455" as="sourcePoint" />
            <mxPoint x="68" y="370" as="targetPoint" />
          </mxGeometry>
        </mxCell>
        <mxCell id="9xqURl-d2IsDU-9S28Iz-9" value="&lt;font style=&quot;font-size: 16px;&quot;&gt;&lt;b&gt;Load Data&lt;/b&gt;&lt;/font&gt;" style="edgeLabel;html=1;align=center;verticalAlign=middle;resizable=0;points=[];labelBackgroundColor=none;" vertex="1" connectable="0" parent="Ac1Aeya4IcdopPUhW2M2-40">
          <mxGeometry x="-0.3396" y="1" relative="1" as="geometry">
            <mxPoint x="-36" y="-14" as="offset" />
          </mxGeometry>
        </mxCell>
        <mxCell id="9xqURl-d2IsDU-9S28Iz-1" value="&lt;b&gt;Data Engine&lt;/b&gt;" style="rounded=1;whiteSpace=wrap;html=1;fontSize=24;strokeColor=#000000;strokeWidth=2;" vertex="1" parent="1">
          <mxGeometry x="-1112" y="360" width="590" height="100" as="geometry" />
        </mxCell>
        <mxCell id="9xqURl-d2IsDU-9S28Iz-3" value="" style="shape=image;verticalLabelPosition=bottom;labelBackgroundColor=default;verticalAlign=top;aspect=fixed;imageAspect=0;image=data:image/png,iVBORw0KGgoAAAANSUhEUgAABngAAAMICAYAAADrG+vNAAAACXBIWXMAABYlAAAWJQFJUiTwAAAgAElEQVR42uzdT1Ijx7o34LdPnDl844qK1l1B4xUgA3NzV9DyuAbGK7B6BZYHNbZ6BcZzwOoVGFZgERU1vrACvoGK09in/5RAKlVKzxNB2MdHSFmZWQLypzfz1cPDQwAAAAAAAJCOf+kCAAAAAACAtAh4AAAAAAAAEiPgAQAAAAAASIyABwAAAAAAIDECHgAAAAAAgMQIeAAAAAAAABIj4AEAAAAAAEiMgAcAAAAAACAxAh4AAAAAAIDECHgAAAAAAAASI+ABAAAAAABIjIAHAAAAAAAgMQIeAAAAAACAxAh4AAAAAAAAEiPgAQAAAAAASIyABwAAAAAAIDECHgAAAAAAgMQIeAAAAAAAABIj4AEAAAAAAEiMgAcAAAAAACAxAh4AAAAAAIDECHgAAAAAAAASI+ABAAAAAABIjIAHAAAAAAAgMQIeAAAAAACAxAh4AAAAAAAAEiPgAQAAAAAASIyABwAAAAAAIDECHgAAAAAAgMQIeAAAAAAAABIj4AEAAAAAAEiMgAcAAAAAACAxAh4AAAAAAIDECHgAAAAAAAASI+ABAAAAAABIjIAHAAAAAAAgMQIeAAAAAACAxAh4AAAAAAAAEiPgAQAAAAAASIyABwAAAAAAIDECHgAAAAAAgMQIeAAAAAAAABIj4AEAAAAAAEiMgAcAAAAAACAxAh4AAAAAAIDECHgAAAAAAAASI+ABAAAAAABIjIAHAAAAAAAgMQIeAAAAAACAxAh4AAAAAAAAEiPgAQAAAAAASIyABwAAAAAAIDECHgAAAAAAgMQIeAAAAAAAABIj4AEAAAAAAEiMgAcAAAAAACAxAh4AAAAAAIDECHgAAAAAAAASI+ABAAAAAABIjIAHAAAAAAAgMQIeAAAAAACAxAh4AAAAAAAAEiPgAQAAAAAASIyABwAAAAAAIDECHgAAAAAAgMQIeAAAAAAAABIj4AEAAAAAAEiMgAcAAAAAACAxAh4AAAAAAIDECHgAAAAAAAASI+ABAAAAAABIjIAHAAAAAAAgMQIeAAAAAACAxAh4AAAAAAAAEiPgAQAAAAAASIyABwAAAAAAIDECHgAAAAAAgMQIeAAAAAAAABIj4AEAAAAAAEiMgAcAAAAAACAxAh4AAAAAAIDECHgAAAAAAAASI+ABAAAAAABIjIAHAAAAAAAgMQIeAAAAAACAxAh4AAAAAAAAEiPgAQAAAAAASIyABwAAAAAAIDECHgAAAAAAgMQIeAAAAAAAABIj4AEAAAAAAEiMgAcAAAAAACAxAh4AAAAAAIDECHgAAAAAAAASI+ABAAAAAABIjIAHAAAAAAAgMQIeAAAAAACAxAh4AAAAAAAAEiPgAQAAAAAASIyABwAAAAAAIDECHgAAAAAAgMQIeAAAAAAAABIj4AEAAAAAAEiMgAcAAAAAACAxAh4AAAAAAIDECHgAAAAAAAASI+ABAAAAAABIjIAHAAAAAAAgMQIeAAAAAACAxAh4AAAAAAAAEiPgAQAAAAAASIyABwAAAAAAIDECHgAAAAAAgMQIeAAAAAAAABIj4AEAAAAAAEiMgAcAAAAAACAxAh4AAAAAAIDECHgAAAAAAAASI+ABAAAAAABIjIAHAAAAAAAgMQIeAAAAAACAxAh4AAAAAAAAEiPgAQAAAAAASIyABwAAAAAAIDECHgAAAAAAgMQIeAAAAAAAABIj4AEAAAAAAEiMgAcAAAAAACAxAh4AAAAAAIDECHgAAAAAAAASI+ABAAAAAABIjIAHAAAAAAAgMQIeAAAAAACAxAh4AAAAAAAAEiPgAQAAAAAASIyABwAAAAAAIDECHgAAAAAAgMQIeAAAAAAAABIj4AEAAAAAAEiMgAcAAAAAACAxAh4AAAAAAIDECHgAAAAAAAASI+ABAAAAAABIjIAHAAAAAAAgMQIeAAAAAACAxAh4AAAAAAAAEiPgAQAAAAAASIyABwAAAAAAIDECHgAAAAAAgMQIeAAAAAAAABIj4AEAAAAAAEjMv3UBAAAAsM2qItuPiIMn/2mel/VczwAAKXv18PCgFwAAAICtURXZaUQMm683X3jobUTMmq/zvKzv9B4AkAoBDwAAAJC8qsgGEXEWEaOI2Hvm0/weEZO8rGd6FADoOwEPAAAAkKxm+7VJRLxd4dN+iIixoAcA6DMBDwAAAJCkZiu2aTy/YudrfolF0GPrNgCgdwQ8AAAAQFLWVLXzObcRcZqX9bWeBwD6RMADAAAAJKMJd2YR8abjl/4+L+upEQAA+uJfugAAAABIQVVkBxExj+7DnYiIX6siGxkFAKAvBDwAAABA7zXhzizWd95OG0IeAKA3bNEGAAAA9FqzLdt1RLzuSZNs1wYAbJwKHgAAAKDvZtGfcCdCJQ8A0AMCHgAAAKC3qiKbxmbO3PmaX5tt4wAANkLAAwAAAPRSUyXztsdNnFVFNjBSAMAmCHgAAACA3mmCk0nPm7kXEedGCwDYBAEPAAAA0EfTWAQoffemKrKJ4QIAuibgAQAAAHql2ZrtMKEm/1AV2amRAwC69Orh4UEvAAAAAL1QFdl+RMwjjeqdp+4jYpCX9Z1RBAC6oIIHAAAA6JNxpBfuRNPmqeEDALqiggcAAADoharIBhHxV+KX8b95WZ8bTQBg3VTwAAAAAH0x3oJrmDTbzAEArJWABwAAANi4pnrn7RZcyuvYjqAKAOg5AQ8AAADQB+MtupYfqiI7MKQAwDoJeAAAAICN2qLqnacmRhYAWCcBDwAAALBpoy28psOqyM4MLQCwLgIeAAAAYNNGW3pd46rI9g0vALAOAh4AAABgY6oiO42I11t6eXthqzYAYE0EPAAAAMAmnW759b2timxomAGAVRPwAAAAAJt0ugPXqIoHAFg5AQ8AAACwEVWRHcRiG7Nt96YqsrERBwBWScADAAAAbMrpDl3rWVVkA0MOAKyKgAcAAADYlOEOXete2KoNAFghAQ8AAACwKYc7dr3fVUU2NOwAwCoIeAAAAIDO7XDQMTX6AMAqCHgAAACATRju6HW/ropsbPgBgJcS8AAAAACbMNzha/+pKrKBKQAAvISABwAAANiEgx2//qkpAAC8hIAHAAAA6FRTvbK3491wWBXZqdkAADyXgAcAAADo2kAXRETEpCqyfd0AADyHgAcAAADo2lAXRETE64g40w0AwHMIeAAAAICuHeiC//ip2bIOAGApAh4AAACgawNd8DdTXQAALEvAAwAAAHTtjS74m8OqyE51AwCwDAEPAAAA0JmqyGzP9mnTqsj2dQMA0JaABwAAAOjSQBd80l5EjHUDANCWgAcAAADokgqez/tBhRMA0JaABwAAAOiSAOPLJroAAGhDwAMAAAB0aaALvuiwKrKRbgAAvkbAAwAAAHTpjS74qklVZPu6AQD4EgEPAAAA0Anny7S2FxFj3QAAfImABwAAAOjKQBe09oNADAD4EgEPAAAA0BWBxXImugAA+BwBDwAAANCVoS5YymFVZCPdAAB8ioAHAAAA6MqgJ+24T6jPJlWR7Zs6AMA/CXgAAACAtWtCitc9ac5ZRHyfSNftRcTYDAIA/unVw8ODXgAAAADWqiqyYUT80ZPmfJuX9awqsvOI+C6RLvwmL+trM6nXc3w/Pp4zdRAR/6y8mjdfkZf1TI8B8FL/1gUAAABABw760pAni+ujWCy47yXQf5NwhlFvVEU2aOb0sPnnwTLzqCqyiIjbiJg9fuVlPdezACxDBQ8AAACwdlWRTSPibQ+acpOX9cGTdp1FxM+JdOP3eVlPzaaNzN/9WIQ5w4g4jfVsN/ghIqbGGIC2BDwAAADA2lVFNouIwx405fe8rE972ravuY+IQV7Wd2ZUJ3N2GB8DnTcdvvRtRIwFPQB8jS3aAAAAgC70JUD51Dk2ZxHxZwJ9uBcR46a9rFhVZI9brp1ueL6+johfqyIbRcTI1m0AfI4KHgAAAGCtmoXzvgQo337qgPuqyCYR8UMiXfpNXtbXZtaL5+UgFmHOsPnq41lM9xFx+qk5CwAqeAAAAIB1G/SoLfPP/PdxRIyin4v8/zSJRSDBEppzdJ4GOq8TaPZeRPxRFZnzlwD4Lyp4AAAAgLWqimwcET/1oCn3eVnvf6Gdo4j4NZFuteD/9Xm3Hx/DnGF0e47OyuduRAxVbgHwlIAHAAAAWKuqyM4j4rseNOVDXtbDr7R1Fv05L+hL7iNikJf1nRn2t/EbxsdA53DLLu82Ig6MOQCPbNEGAAAArNtBT9rRpvrhLPpzXtCX7MViW7mzXZ5YzflOw+bruy2/3NfGHICnVPAAAAAAa1UVWV8WH1pta1YV2SQifkike7/ZpW27qiIbxMdA5zTSODNp1f4nL+u5dxYAVPAAAAAAa9NsmdUX85aPG0fEKNIIDyaxCDu2df48nqNz2vzztbsqRs0cBWDHqeABAAAA1qYqsrOI+LkPbcnL+tUS7R5FxK+JdHOryqSE5swwPgY6b9xF/+U2L+uBbgBAwAMAAACsTY+2O7vJy/pgybbPIuIwgW6+j4hBXtZ3ic6Rg/gY6By6a1qxTRsAtmgDAAAA1uqgJ+2YP+N7ziLizwT6eK9p6ziFCdGco/MY6AxjN8/RWcV9NdcNALtNwAMAAACsU18qMq6X/Ya8rK+rIvsl+lGB9DU/VUU27WNVR3OOztNAxzk6L3cQEee6AWC3CXgAAACAtWgqNfri+pnfN47FofYpVJlMYxGgbHrc9+NjmDMM5+gAwFoIeAAAAIB1GfSoLc8KePKyvquK7Cwifk2gvw+rIjvNy7rzyo6qyIbxMdBxjg4AdEDAAwAAAKzLsC8NecnWZXlZT6siG0UawcWkKrJZXtZ363yRqsgO4u9VOs7RAYCOCXgAAACAdTnoSTs+rOA5ziLizwT6/HXT1vEqn7TZbm8YztEBgN4Q8AAAAADrMuhJO65f+gR5WV9XRfZLRPyQQL//VBXZ9CVVS87R6b07XQCAgAcAAABYl76EAvMVPc84IkaRxnZk01hyizzn6CTlWhcAIOABAAAAVq4JC/piJYvheVnfVUV2FhG/JjAEh1WRjfKynn5hjJyjky4BDwACHgAAAGAtBj1qy8oWw/OynlZFNoo0KlwmVZHd5WV9HvGfbddOwzk6qbvJy9oWbQAIeAAAAIC1GPSkHbdrWAwfRcRfCYzBXkT8VhXZ/ZP/TfpmugCAiIh/6QIAAABgDYY9acd81U+Yl/U8It4lNBZ7IdzZJlNdAECEgAcAAABYj4OetGO2puedRMStYaZjN3lZO38HgIgQ8AAAAAAr1pz10peKkfk6nrTZ9u3MaNOxiS4A4JGABwAAAFi1gx61ZW3VDnlZn0fEB8NNR+4j4lw3APBIwAMAAACsWm8Cng62sxoZbjoyaSrHACAiBDwAAADA6vUl4LlZ9wvkZT2PiHeGnDW7D9uzAfAPAh4AAABg1QY9aUdXh9FPIuLWsLNGY9U7APyTgAcAAABYtcOetGPexYs0C+9nhp01ucnLWvUOAP9FwAMAAACsTFVkgx41Z9bVC+VlfR4RH8wA1mCkCwD4FAEPAAAAsEoHPWrLvOPXGxl+VuxdXtbXugGATxHwAAAAAKvUl4DnPi/reZcv2LzeO1OAFbnJy3qsGwD4HAEPAAAAsEp9CXg2VfUwiYhb04AXug8VYQB8hYAHAAAAWKVBT9qxkYAnL+u7iDgzDXihM1uzAfA1Ah4AAABgld70pB3zTb1wXtbnEfHBVOCZfsnLeqobAPgaAQ8AAACwElWRDXvUnE1XP4zMCJ7h97ysVYAB0IqABwAAAFiVQV8akpf1bMOvP4+Id6YES7gJwSAASxDwAAAAAKsy6Ek7bnvSjkmP2kK/3UfEaXOGEwC0IuABAAAAVmXYk3b04nD6ZrHedlvdu4+0zkC6j4hhU/UFAK0JeAAAAIBVOehJO6770iF5WZ9HWmFDiu4j4veI+DEivsnLej8ipgm1/ywv62vDCMCy/q0LAAAAgJeqimw/IvZ60py+LZaPIuIvs2SlPkTELCJm/zxvqZmLk0Su48e8rKeGE4DnEPAAAAAAq3DQo7bM+9QxeVnPqyJ7FxE/mSbPdhOLQOf8n4HOU024M4v+hI1f8j4v64mhBeC5BDwAAADAKvQm4OnpdleTWFTyvDZVWrmNiPP4WKVzt0Q/v0ng+m7ysh4ZZgBeQsADAAAArMKgJ+3o5Xk3eVnfVUV2FhG/mSqfdB9/D3Tmyz5BVWSTiHibwLXeRMTQkAPwUgIeAAAAYBX6UsEz72sH5WV9XhXZh4g4NF3iPpowJxaBzouqrqoiG0XED4lc92iJiiQA+CwBDwAAALAKfQkt5j3vp1FE/LWjc+RDfAx0Zqt60qrIDiLi10T6YNjTLQQBSJCABwAAAHiRqsgGPWrOrM99lZf1vCqydxHx0w5MjZv4e5XO3Rrm3kHfx/yJ74U7AKySgAcAAAB4qUGP2pLCAvokFpU8r7dsHtzGx0DnfN3bkFVFth8R04jYS6BvfsnLeuqtAoBVEvAAAAAALzXsSTvuUzjbJC/ru6rIziLit8TH/ek5Oud5Wc87fv3ziHiTQD+9z8v6zNsEAKsm4AEAAABeatSTdiSz/VVe1udVkX2I/pxd1NbjOTrnm9xurCqyaSJ9dxMRwh0A1kLAAwAAADxbs9Del63GUjvfZBQRf/W8jY/n6JznZT3ryZw7i4i3CYzvbUQMU6gqAyBNAh4AAABgKVWRDSLiNBaVCX06RyapgCcv63lVZO8i4qceNevxHJ3ziJj1LZyoimwUET8nMLz3EXEq3AFgnQQ8AAAAwFdVRXYQi4qT0+hXqPPUPMGunTT9uqk+fTxH5zHQmfd8Dk4SGdfRJrewA2A3vHp4eNALAAAAwH+piuw0FoHOMPob6vxHXtavEu7n3zp8yQ/xMdC5TqSP9mMR4O0l0Nzv87KeegcBYN1U8AAAAAAR8Z9F9GEsQp3TSGMx/dFNqv2el/V5VWQfIuJwjX0zix6do/OMeTlLZD6+F+4A0BUBDwAAAOywZvH8MdD5LuFLmSc+FKOI+GtFz9Xrc3SeYRoRbxJo5+95WY+8qwDQFQEPAAAA7JiqyAaxCHRGkcbCeRtJn3eSl/W8KrJ3EfHTM749mXN0njFXp5FG8HjT3E8A0BkBDwAAAOyA5oD6x0qdN1t4idtwoP0kFiFBm/OOkjtH5xlzdhQRbxNo6n1EnG5BpRQAiXn18PCgFwAAAGALVUU2jI+hzustv9z/2YbKlWbM/vjE/5X0OTor7Ie+uY+I4baGbAD0m4AHAAAAtkhVZI+BzmmkcSj9SuRl/WqLxnAYEcPmf85jEerc7dAcPohFmJXC/P0+L+updx4ANkHAAwAAAAmrimw/PgY6w9ihUOeJD3lZD82GrZnP15FGxdmPeVlPjBoAm+IMHgAAAEhMVWSDWIQ5p5HGAfTrNtcFWzGv92NRuZNCuPNeuAPApgl4AAAAIAFNqHMaEaOIeKNH/sb5J9thksjcvsnLemS4ANg0AQ8AAAD0VHMWySgW1TpCnc8T8KQ/18cR8TaBpt7Ex/ORAGCjBDwAAADQI1WRDePjmTqv9UgrAp605/woIn5KoKn3ETHKy/rOqAHQB68eHh70AgAAAGxQVWSPgc5pROzpkaXc5mU90A3Jzv2DiPgzkeZ+k5e1MBGA3lDBAwAAAB1rDpM/jcVWT0Kdl5nrgmTvg4OImCXS3O+FOwD0jYAHAAAAOvAk1DmNiO/0yMrMdEGy98M00gg3f8nLemrUAOgbAQ8AAACsSVVkg/hYqSPUWY+5LkjSeUS8SaCd7/OyPjNcAPSRgAcAAABW6EmoM4o0FrBTZ9us9O6RaUQcJtDUm4gQ7gDQW68eHh70AgAAALxAc5bI4/ZrQp0O5WX9Si8kda+cRcTPCTT1NiIO8rK+M2oA9JUKHgAAAHiGJtQZxSLUea1HNuKDLkjqnhlFGuHOfUScCncA6DsBDwAAALQk1OmduS5I6t6ZJNLcUV7Wtv4DoPcEPAAAAPAFVZE9br12GhF7eqRX5rogiXtoPyJmidw/3+dlfW7UAEiBgAcAAAD+QaiTDFUW/b+XUgp33udlPTVqAKRCwAMAAAAh1EnQjUqLJEwj4k0C7fw9L+uR4QIgJQIeAAAAdlZVZIOIOIvFuTpCnTTcRMREpUUS99c0Ir5LZE6NjBgAqXn18PCgFwAAANgpVZGNYrGge6g3kvB7RJxHxHle1ne6I5l77NcEmnofEQd5Wc+NGgCpUcEDAADATmjOAhnFomLntR7ptftYBDqzEOqkeK+dRjrhzlC4A0CqBDwAAABstSbYOWu+bMPWX7fxMdBxtk6699tBLM7dScFZXtbXRg2AVAl4AAAA2FrNNlHjULHTV7exqNSZWmjfivttvxnPFILUH53jBEDqBDwAAABsnSdVBG/0Ru/cNGMzE+ps1T23H4sKrBTC1Pd5WU+MGgCpE/AAAACwVaoim0TED3qiVz7EorLj3HknW2sSaQSqH/KyHhkuALaBgAcAAICtoGqnd36Pj6HOne7Y6ntvEhFvE2jqTUScGjEAtsWrh4cHvQAAAEDSqiI7jUW4s6c3NuY+mkAnFtuvCXV2494bRcSviczPoW0BAdgmAh4AAACSltAC8za6jcW5K+d5WZ/rjp2794YR8Ucizf1GuAPAtrFFGwAAAMkS7mzEbSyqdKYWzHf63jto5kEKvjdXAdhGAh4AAACSJNzp1E0stsCbWSinKrL9SGdLxHd5WU+NGgDbSMADAABAcpozd4Q76/UhmjN18rKe6w6emEXEmwTa+T4v67HhAmBbOYMHAACApFRFNoiI60ijeiA1v8fHUOdOd/CJ+28aEW8TaOpNXtYHRgyAbaaCBwAAgNRMQ7izKvfRBDqx2H5NqMNnVUU2jjTCnduIGBoxALadgAcAAIBkNOfuHOqJF/lPqJOX9bnuYIl776dE5vepsBKAXWCLNgAAAJLQHOw+D9U7z3Ebi1Bnmpf1te5gyXvvICL+TKS53+ZlPTNqAOwCFTwAAACk4iyEO8u4iY+VOkIdnqUJd2aJNPd74Q4Au0TAAwAAQCpGuuCrbmJxRtF5XtZz3cFLNFVz00gjWP0lL+upUQNglwh4AAAA6L2qyE4j4rWe+KTf42OljnNHWKXziHiTQDvf52V9ZrgA2DUCHgAAAFJwqgv+4z4WW2YJdVibqsimEXGYQFNvYrF9IwDsHAEPAAAAKRju+PXfx8dA59x0YJ2qIjuLiLcJNPU2IoZCTgB21auHhwe9AAAAQG8154D83w5e+m18DHVmZgId3W+jiPg1gabexyLcuTZqAOwqFTwAAAD03cEOXetjqDO1cE3XqiI7iIhJIs09dY8AsOsEPAAAAPTdYMuv7zYWi+rneVnPDTebUBXZIBZnO+0l0NzvVbUBgIAHAACA/hts6XXdR8RZXtZTQ8wmNdsgnkca4c579wwALPxLFwAAAMBG3EXEflM5AZt0HhFvEmjn73lZjwwXACwIeAAAAGAzXkfEzxHxV1Vk51WRneoSulYV2TgiDhNo6k1EjIwYAHxkizYAAAD6br4D1/hdRHxXFdltREwjYuo8HjryUwJtvI+I07ys7wwXAHykggcAAIC+m+/Qtb6OxYK7qh7WriqyYSJNFXgCwCeo4AEA6NDx0ckg2h8WPr+8upj39DqGK3ia3l7fqq798upilvBc3Y+I04g4aL4GsVh4/qf7iLhuvmaXVxfnG2rvQUTsdzkmS9zP15dXF3d964sXuru8urjucIjnsZtU9bBu14m0U+UOAHzCq4eHB70AANCR46OTeXx6kfxT3l9eXYx6eA0HEfHnip7uPiJmETHdVDCw5LUPI+KPJb7l25RCnibUGTVfb14wpucRMe4ywDs+OrmLiL2vPOzm8uriYIWvOYsW51ZcXl286ngcr2P9h6V3/v5UFVmbMd4Fv8ci6DnXFazo3jqPRZjYZ+/zsh4ZLQD4O1u0AQB05PjoZBTtw52I9pU+XVtlu/Zisaj02/HRyfz46KTvWxGNN9hX65ybg+Ojk2ksqiR+jpeFA3sR8TYi/mrCwC7avx/tFv7nK37pNtd3u4EhfdPBa2ziU/8zP0kiHt8zqyKbV0U2ropsoEt4oUkCbTytimzfUAHA3wl4AAC6M17y8Yc9vY51Ldq/jkXQM+3jRTfh02FP+mpV17R/fHQyjoi/YhHKrLo6Yr9nc/J6lX3Xsr+uOx7TrubcJgIeFSv//Z7prB5eLC/rWUS873kz9yKNIAoAOiXgAQDowPHRyVksV73z+H19DAiGa37+tz0NeZ6zsHTQ4zk5jMUi/U/reo0Ot6drOydXGUocbOA12xh09DoCnn55WtUzUdXDM4wTaONbcxsA/k7AAwCwZs0n/cfP/PZBDy+piza9bSpL+jKGo3hGQBc9DXiavv3jmdcUCc/JXQh4uphz95dXF50feJ6X9V0szp/h815HxA+xqOqZVUU20iW0vL/m0f8qnog0gigA6IyABwBg/c7i+Vtf9TEg6CoU+On46GSw6Yt9YUC314dreHotx0cn57HGqp0nPnR4aa36+PLqYr7C12x7b847HuZhB69xvcFpbIum9g4j4teqyO5U9dDSOIE2quIBgCcEPAAAa9SEA2cveIphz66n6/aMe3DZz9pe74lBj+biLBZbOW2bNmcjrTpwajWul1cX27hF22xTA92cFfIhWMZeqOqh3f01j4h3CTR1arQAYEHAAwCwXpN42cH1g55dT9cVRW+bYGIjVhDQRfQgpHsS7rzp8GVnHV3bprZK20So1EYXFXbzDU/psR8tL5q3qnr42u8t932fx1WRDQ0VAAh4AADWptma6+0Ln+b1JgOOTxhs4DWHG7zel2yv96gP2+xN4+Xhzk0sAounXynNyfkK7+1ebs/WYYXdfJMDropnJVT18Ln76y7S2ApxbLQAIOLfugAAYG3GK3qeg9jglkifaAC7CNIAACAASURBVMtXXV5dvPrUf28Wxk9juTNgDiLivOsLbQK6sxU81WCTA3Z8dDKO52/L9nsswqHZ5dXF3RfGdNR8PQ3DZn2ak7HaCp62Yzrv4/0ZEd9fXl1ME39/HTVjuhe81GEsKiImzf0+abbqYndNYjUfcFjrvK2KbNgEvgCws1TwAACsQbPo/XZFT3fQo0tr05abz/0fl1cX15dXF+OI+HaJ1xxs6FrHsZrFrTcbnIfDWC5Me/Q+Iv7n8uri9PLq4vxz4c6TMT1rxuldT+dkxGoDnravOeu4LwYb6IuNaAKIsZ82K6Wqh8f76y5W8wGHdZsYLQB2nYAHAGA9Vrno0IuAp9kqrk3gMf/aAy6vLmbxhSDoHwYbuNZBrC6g63LrrH+O13TJb7uPiG8vry5Gl1cX82W+8fLq4u5JeHcf3YUIbe6P2y+FVGu8J7sOUtpW2CUf8ERE5GU9iUWVGav39KyeaVVkB7pkt+RlPY2I2543840gEoBdJ+ABAFixZjH/sOXD2xxkPOjJpa16Ufu8x8O46k8Fb2IMzyLi9RKPv4mIQRO+PVvz/cMVBypf0uYa5xu4F+477INl2nUT22UU/V+ETtleLMLuP6siu66KbFQV2b5u2RljbQSAfhPwAACs3rjl4z5Euy2cDntyXcOWj5ulPHhNQNf2zJofWz7uoONr2I/ltte5iRWGMl1ViCxRGbXqOdkmVLrueMwH0a7Cbiuqdx41W0mdRruwnJd5ExG/RsRcVc9uSKSK57UqHgB2mYAHAGCFjo9OTqN9IDOOloutzZk+mzZo+bj5ip9v1vF1jls+7vby6qJtpU/X47fM4di30W3FzSbm5PUK7/Fh16+5ofszGXlZX0f7AJqXU9WzW0YJtHFsDgKwqwQ8AACr1XbB/0OzlVXbReBkAp4lzm4ZtnxcZ8HDktvrjR/Hsk/j94zqndNEw51l+nW+gdfsOuBpez/NtvGNtwl5vvcjqHOqerZcXtazlj/nNun1kj/3AGBrCHgAAFbk+OhkFO3PPBk3/2y7sD7owSW2CT4+rKGvulwobxvQ3V5eXUybf5+3ePxes4VWF06jffXOu662U1uTVovJK77GtuM477gvBj28nzrVbCcl5NkMVT3bbZxAG8/MOQB20b91AQCkp1koHjz5T/MlqiZYz5jsxxJn7zweZH95dTE7Pjpp8z3DDV/fyqoWmudqG6TcP/ZVB9c4isWn0dt4OtZt771BdLPof9q2b5cYh75qMy/vj49Oxl33b1fzdsm+iIg4a/me80/TFH7O5GU9rYrsOhaVSnvBJjxW9UyqIjuPiElTYUWi8rKeVUX2IfpzJuCn7MWiimdsxADYJQIeAOiJZmuo/Vgs0j3+M5p/7rX4/n/+p5tYVIfMm6/riLgWBK3NWSxfvfPotsX3bnrbm0HLx82/MEf3Y7GX/zjaL7yed3iN45aPe1q9E7FYSP6pxfcNY83bYzV9/F3Lh08S3prt8VrbzKO9luOzSps4lLxtOPncvpimMjfysr6uimzYvH+8DjblsarnbVVkN7EIlM/zsr7TNUkaR8Qfff9drCqyiTkGwC4R8ABAx5pFyYNYLPYeNF/rWIB6XOw7/Mfr38ci7JlFxGwDnzLf1jFtu/f7h0/0+bzFHNg7PjrZ3+CCfNuAaXR8dPK5CofnfPJ32tEYviSgu1txH77EsG9924M5uQmdVissUWH3bKl9OKAJeQ6aef5dsGmPVT2/VkX2S17WzktJTFPF8z4WoV1f7cUiSBwZMQB2hYAHADrQLHgPm683G27OXiwW2g8j4qcm8DmPiPPLq4tzo/UsZ9G+ImX8if92He3Cj4PY3AHpbReQVzm/P3QRQC65vd4/q3fi8uriuuWWV4MejdPNFlTzDXvctq63o1r33PqQ4gRpPsV/WhXZWUT87EdVL9xE+uHyLhtHvwOeiEXF2Dgv67nhAmAXCHgAYA2aBePT5qvvnxz+zxYqT8KeSeIHr3c51oN4WfVORPtzWYbR/4BnlUYdvc5LA7qIxaLl18KtLsLdYcvHbUOYO+hx26637P6cpzxR8rKeVEU2i0Ww8CbYlF8iYmz7rKTvpXkCVTyPP6tHRgyAXfAvXQAAq3N8dDI6Pjo5j4j/i8VWJKltC/MY9vx5fHQyaw6d58vG8fJwoO1i8GCD19n1ORY/dlFhsuT2ev9VvfPEXcvXG/Zk3m5DgDvocdvmHb/e0Hz5srysr/OyPoiIHyPi3o+uTt1GxLd5WZ8Jd7bm956+e1sV2cBQAbALBDwA8ELHRyeD46OTyfHRyV2kGep8zmFE/Hp8dDIX9Hx+7KP9p1i/tN3YvOVzHGzoOocdv+T7y6uLSUevNY6XB3QR7SurBh3ct21swyLrYV8btoEKyHXPq62p6MzLetL01y9+inXiXV7Wg7ysZ7pia+6heUS8S6CpE6MFwC4Q8ADAMx0fnQybap2/IuKHaL9InJrX8THoGRr5v1lm8WD8uf9jiUqVTW0tNOjwtd5fXl2MOrqHB82928aXqncieh7SbeH7b5/7cRPn1ay7wm6rtuzMy/ouL+uziPifiHjvjlqLm4j4Ji/r8Qvu89Hx0clYV/b295++V8J9VxWZ31sB2HoCHgBYUhPszCLij9ieap02XkfEH83WbQPz4GS4xPh/qXrnP49p+bqbWNju4jXvI+L7rsKdxniFj533qC93QZ/fg+ZdvlgHwfv95dXFVm6rlZf1PC/rUQh6Vv1e/i4v64O8rK+fOacPjo9OrmNRFT3Upb28d+4ijQqZsdECYNv9WxcAQDvNwvokerwtUEcOI+L6+Ohkcnl1sct/OC9z7YMmFPyStgv/B7F9B7i/j4hxF2fuPLmfB7HcIdGjFW1VKOBJY06+xHzL+uJ62ydTs+XUqCqys1icyXUW21uVu04fImLU9Odz35vHEfHTk/800629NUngXjmsimxoi0AAtpmABwC+ojmEfRLLLQZvu72I+Kn55Pioy4X5nsyJYSwX9L2O1W2hNNjAJa9jAfk2Is4jYrKh+TNd8vGrCnb3jo9OBj24Z4aR9sJpqzl5eXXxaoX3/Tj+vvD8OV33a9v3hG82cDZQUpqqhHFEjKsiGzX//lrPfNV9RIyb841e8nN1qr/Tul+qIpu0fF/cpHGoBANgiwl4AOALjo9OzmK5Q9h3zWM1z9lXzifZNpvclmTY8T2w33L+38bnKxfu4mMVwHVEXG8y4HhGQLdqg1hflcdNtDurKfVKooOWc7Lr14zoaYWdcGc5eVlPI2LanOExDtW7n/N7RJw9t2qn+Rkzjs+fhzbTxb2+Tx7D0D4Hc4dVkY2aexoAto6ABwA+odmObRqbO9Q+JXsR8evx0cnB5dXF2Q7MjdGG58VBT19vmtCWfZtu5zDWt2jZ9qyU746PTvYTPlulzWLifAP3wibOq2nTrg/BszRbOw2rIhs07x2qeZu5Hovt2M5f8PN0GF+v2rnT1Un8TP01gTZODRUA2+hfugAA/q7ZhufPEO4s64fjo5NZ82ncbTbe8OvvddzHw5aPmyVyf5/G5j+Jv86QbplxSDKQbRaFNzEn24RK1x33xSDaVdjN/Yh6mbys53lZjyLi/0XEu1gEHLvq94gYPDfcOT462T8+OjmPiD++dl+pPEvi3pjG6ismV+11U2kEAFtHwAMAjeOjk8Hx0cks+r+XeJ8dRsSsqYDaxjkyin5sQ9Jl/w5aPm6eyDBOetCGwRqfe5nF0LMmIEhN53NyiVDpetv7YtflZX2Xl/U4L+v9iPg++r+wvUq3EfFtXtanzXlFz7mXTpv5+F2Lh9+bcckYayMAbIaABwDiPwsO12GP/VV4E1sY8jRVM5OeNGfY4WsN2jxok2fqLDGGo+hHQLfO6sDZEo/dixVtWdN8In/QUf9t4iycwQZec5XvBbNg5fKynuZlPYiIb2P7t8H7JSIOmi3rnvMe8fghmt+i/bmGqncSuhcSuAdeV0V2ZrQA2DYCHgB2XrMl2zILDnzdXmxfyHPWozky6PC12oSeqSxsjnv0vjNcx/M257/8vsz4Hh+dTFdwLfMO5+VBy77YRMAz7+l7wTxYm7ysZ3lZDyPifyLi/ZZd3k0sqnbOXlC1cxbP+xCN83fSMk6hjVWR7RsqALaJgAeAnfVkD3hbsq3H1oQ8TfVOnz71edDRdW+iUmJd1zKOflTvPBqs8bmnSz7+7fHRyfWyFTjHRyfD5hP5fzT3+7xH8/9mxa85bPOgy6uLWQ/fC+5TqLDbBlt4Ts+7vKxXUbXzczzvAxIqeNKa/7Po/wc+9iLR8+cA4HP+rQsA2EXNgv0s1rtVEh9DnmHiByWPo/3i1Id4/nZIg4h42+JxXc3bQcvHzRO435dZ0Hn3gpcbRrtPqa8tpLu8ujg/Pjq5jeUCrTcR8dfx0cn7iJh+LqhoqnWGEXH6z3nYRYjQjOXeBuZkm/HaxFksbd4L5i+sGLtuKsNoqal0GceiWmDU/PvrhC7hJiJGeVlfv+BeHcfLP0AzN5uS/H3pj5638awqsslzK9IAoG8EPADsnKYq4TzSWmxJWdIhT1PV8MMS3zJ6yUL38dHJ27bzuIP+3JYKnmW213t/eXUxfsH4jWPDAc+Ta/7tGd/3NhYVPRF//yT2fnw5TOgq3Oh8Ti4RKnV6HyxRYfcmXrbg+m04w+fZmrNJplWRDWOx+N3ns/7uI2Kcl/XkhfNyGqv5IMLcDEpuvs+qIvvQ83n+WMUzNmIAbANbtAGwU5qFh1kIdzbxx/R5s1CammUWAN6toIqh7UJ5F9u0JR/wNAHd2ZrG+1NmfRi/y6uL83j5VjmHT76+tlg772hIhyseh5Tvg0FHr2ObrBVI4JyeDxFx8Nxwp9n2dhIRf8bqqkznZk6SRgm08awqsoGhAmAbCHgA2BlPwp09vbERr2NRybOf0JwZRLst0yIWn3yerOBl5y0fN+igC1ptS9Xz7ZvGsVz1zvyFr9e2L/aWPfPmGU6juzNAupoDgxXfR6u6DyK6D0K6CHlvbc+2Wj08p+c+In7My3qYl/Wz7ptmC8DrWK7a9aucHZXuHI9+hph/+xkcKngA2BICHgB2gnCnN97EakKQrkyXeOxkRQuhbReJhx1cf5tKt3mP7/tBtA/oIlaw2LPktnmDdV5/Mx9PO+rursKNQctrX+W8bBukdH0vdPEe0Nv7O3V5Wd/lZT3Oy3o/Ir6PzZzh9HtEDFZQtfNHrL4y+tYsSdo4gTa+VcUDwDYQ8ACw9YQ7/fuD+vjo5CyBeTOM9nvIr6p6J6J9JcRBB9ffxqzHwzhe4rHvVxgKtF2YHK67Ay6vLmaxWDxet66qPNrckx9W/JqDln29jVu09fn+3hp5WU/zsh7E4ryjDx285H1E/G9e1qfPPWj++OjkNBYB4A9rauPczEh6Ts+j/1U8y/6eAAC9JOABYKsJd3rr5yUChBT+6J+scBujWcvH7a15u7tBy8fNe3rvD6Pj6p1n9EkXW2zF5dXFNCL+N9a7FdR1B2O6qa3SNhEqtdHFWXK9vL+3VUfn9DxW7Zw/8z7cPz46OY+I39b8u5Wzn9I3js1vQfg1qngASJ6AB4Ct1Sx+z0K401fnHZxB8ty5cxqbqd6JWG5BdZ0BQV/PHWlrvMRj3694S69Zy8d1Nv8vry7OY1ExdJPwe8ZgDffQ194LOn/Nlu0advRS86Bzazqn5zYivn1h1c6omRPfddANzn7agnkcaWzLOzVaAKRMwAPAVhLuJGEvIs572rZlFiRWWb2z7NkhwzX2wUHL9l738P4fRvuALmL1W7S0nQ9vuuyXy6uL68uri4OI+DFW+6nq22YruHXbROg4aPm4ecfTvKvqr1mwMY/n9DTz8CXn9PwSEQd5WT9rPI+PTgbHRyeziPi1w9+rVPBsh0n0v4rnsCqyoaECIFUCHgC21Xl0vHjKs7xpDmjujeYTym23Plp19c6jtlUWgzV2xcEK29m18RKPfbfi6p2IJRYmN7FV4eXVxaSZOz++YAzvY7GF1P9eXl0MOmr6JgKetuMz63gYu+jzlKu9tkoT9Dye0/O/0X5LwMeqnbMXVO2cNffUYceXrYJnS+ZupFHFMzZaAKTq37oAgG3TBAaHeiIZPxwfncyaLaT64DoWB123cbfK6p0nRhHR5nyddS6AnW749V9ivOR4b3IObeRT6s28nUTEpNmGbNh8DWIRpPzzU/ofmvG+jojZhio7xtFioXDF9+Q02oU3XY/jNNZfAWmBvYeas3POqyI7iIiz+PxZY+8iYvKCYGfQzLON/D6lemyrTJq52ueq+sOqyIbPrXIDgE169fDwoBcA2BpN9cWveiI59xFxsIZKCgDYWs0B8WfxscJtHotg59mh4/HRyTgiftrkdV1eXbwyuls1T88i4ueeN/NDXtZDowVAagQ8AGyN46OTg3DuTspumvNBAIDN/B41jc1vcfvh8upiuAN9PV9TFXAvVUU2j/Zb4G7K93lZT70bAJASZ/AAsC1/KO/HYrsa4U66enceDwDswu9QTdXOn+H8wi76+/EDSbv2oZaxNgLA6gl4ANgW0+j/pwL5uh82ceg8AOyi5mfudWx4S7Z/mG1xfw/iY7X5TgU8TWXMbc+b+boqspF3BgBSIuABYBv+WB5FxHd6YmucNxVZAMB6fnfab6pm/4j+fUDmblv7PP5ebT5o+71VkZ1WRbYNvxuNtREAVkvAA0DqfywPIsK2XttlLxYLIADA6n93GsaiaueHnjbxegv7fD8WlTtPt8BbpoLnt4j4v6rIrqsiG1dFlmT1T1PFc9PzZr6uiuzMOwUAqRDwAJC6aTh3ZxsdNucBAAAr8qSKpM/b2m5jBc80/vt8o8NnPM+bWGyn92dVZHdVkZ1XRTaqimyQUF+kEJ6Mt6RiCoAdIOABIFnHRydnz/zjmDTMdQEArNQ4ev7BmMuri62q4Dk+OpnGZ7YSbirR2/jU2TV7zfP+GhF/VUU2r4psUhXZaZ/7Iy/rWUR86Pmw7UUaQRQACHgASPaP5UHYI3tb3UbEN5dXF1NdAQAr9UPP23e/Zb+vTiLi7RceMmj5VPMWj3ndjO9vVZE9VEU2q4rsrKfbuaXwO/yZKh4AUiDgASBV07A12zb6PSIOtu3TuwCwacdHJymc23K9Rf09iq8HasOWTzd7RhMOI+Ln+Lid27TZzm3joYUqHgBYHQEPACn+wXwatmbbNvcR8f3l1cXp5dXFne4AgJVLoRphviW/q45isXXa1wxaPuVLg6+9WFQS/RoR/1cV2XWzndtwg92UQnhyltj5RgDsIAEPAKn9wbwfERM9sVVuImJoSzYAWKthAm2cb8HvqsNoF+5ErHaLtmW8iUV10R/Ndm7nzXZug676KS/r64h43/Ph3AtbQgPQc//WBQAk5iwWe4xvg5uIOI/FpzLnn9uWrDlvaBCLhZmD+MxBvYl6HxFnqnYAgEg84Gm2wTtf4ltaVaTnZX1dFdk6m/5d8/VzVWS3sdgS7jwiZnlZr/N3tHF8+YyiPnhbFdk4L+u52xOAPnr18PCgFwBI5Y/m/eYP/5TP3rmNRQXS9CWhRrNN3SjSDXvuYxHsTM1sAOjk96hZ9H+L228vry5mifbvQSyCkWV/T/2mzdmDVZFdx6LypmuPH0g6b6puVqoqsmn0P+R5n5f1yLsIAH2kggeAlJxFuuHOTSwCjdkqnuzy6uI8Is6b6p5xAn8Y/7MvRm0WMwCAlUnhDJ4kfzdoPoQ0febvqYOW1z2PzQQ8b5qvn6oiu4+/V/fMV/D8Kfweq4oHgN5yBg8AKf3hfJZg0+8j4sfLq4uDdXwi9fLqYn55dTGKiG8i4kMC/fE+FuftCHcAoFtv+t7AFLdsbX5Hnb2gfw9aPq4PvzvtxaJ6/NeI+KsqsnlVZJOqyE6f+4RNaPIugaGeegsBoI8EPACkIsXqnZuIOLi8upis+4Uury6uL68uhhHxY0/74j4ivr+8uhg5bwcAutWEECn83pSi83hZeNY24Jn18NpfR8QPEfFbVWQPVZHNqiI7q4rsYMnnmTS/K/bZYVVkQ+8mAPSNgAeAVIwSa+/7pmpn3uWLNmHSNz37I/kmFlU7U9MYADbiIIE2pli9M42Xn2s0aPm4eQJdchgRP0fEn1WR3VVFNq2KbFQV2RcDxrys72IR8vTd2FsJAH0j4AEghT+eT2PxCcFUvG+2TduIZvuzQfTjk7C/hC3ZAGDTBgm0ManfFZpwZxVnx7Sq/knw/Jf/z94dJLdxZGsDvf2i5+QbOxTEWwHZKyAawFzsFQgae2D2CgStwPRAY0EraGoOwOAKmlxBg+HQ+CdX4H+AhEWrKYkgCkBm1jkRCss2BVVl3UoA+VVmHqT2eR8R/++3H3+4Tsu5db/y82bxAMAzCHgAKMGwoGPda7izkpZB68b+Qp77iPjHdDY5tyQbAOxdp4BjLObzQr83GEYz4c7q9Z46w+qq4Bo8juVybr+m5dwu03JunQizeADguQQ8AOT+Bfowlpu5liCLcGdljyHPau+hSxUMAFnoFHCM80I+mw5jOStlH9dnUVFNvozlcm7/+e3HHxa//fjDuJDzO/3txx+GAQCZEPAAkLuzQo7zJiLOczuoPYQ8v+xj7yEA4Js6mmBz/d6gG82HOxFP3yOp1iVvj+Lzcm4lGLkbAMiFgAeA3JUS8GS7FFk6rmFsd13zP5ZkU7IAkJ2T3A9wOpvMcz6+tIza5Z6vjz0N83BkFg8AuRDwAJC7EpZn+5D7oMR0NrmO7YVllmQDgLwdaILnS+HOfIvt2Hnizwl48jHSBADkQMADQM5fpruFHOq4hINMIdTbhl/WkmwAkPfnqZMCDvMq4/Y7jOXMnW2GZMdP+aEX7z7dxXZnZPN0R7/9+ENXMwCwbwIeAHJWwpem29xn7zw0nU1G0cwgiiXZAKAMhwUcY5bL3KZwZx7LPWK2/Xc99XOvWTz58DkYgL0T8ACQs24BxzgvsF2HsdnTn1dhSTYA8HmqObmGFvN44uyaBnQKb6s2evnbjz90NAMA+yTgASBnJSwpUtyX7LSc2uiZf/ztdDbpWpINAGhQdjN4+r3BOHYX7kQIeEp1pgkA2CcBDwBZ6vcGnShjQ+Aiv2RPZ5OLWG+ptvuI+Hta4g0AKEfX56m1P4eOI+JVptdpoaSzMtQEAOyTgAeAXHU0QTZfSK8iolPSXkMAwB9K2INnkcuB9HuD89h9uPPkz74v3n3yeSwvx7/9+MOhZgBgX/6qCQDI1Ikm2K7pbLLo9wZvI+LNN37srVk7ZUqz4DrpXx/+/nvu4vOT1HfT2cRSMORe690H/3r4xPeP6/i8JNTCspNU7jj3A8zlHuz3BsOI+HlPf/3RGj97u+bPs11nETHWDADsg4AHgFyV8iTcSSw34C3SdDYZpcGMLwcJ7iPizKydvKWB7U76dZLum9OG/45VPVzH8gnrRar56+lscucqsIM6P3lQ450Hv44arvOI5YzFVch5HcvwR8hJyfdPCZ+nbjNpq7OIeL/v9/UnfvZahIAnt+8DALAXAh4ActXxhW5nhhHx64N/v4pluGPwPiMpzOmmmjuJ3Q7sHMQyOFqFR2/SMd3GchB8HhFzA+E0VOcnD37teubBqsZfPjimVb/4sNb1j5SihM8piwz6npPIYwbGUx8cmkfDD3TQ+u8DABRKwANArjqFHGe39Iaezibzfm/wMZYDmpZky0R6kribfuW6vM5R+vUyHfN9RFzGcuDp0iA4T6jz7oM6z3mwchVw/pSO+ybV+qVgk8zZf+f7/dAqVDko6PPvQmln9x4BAHsh4AGAzRytsZxGzoYRcWJJtv1Je+asQp2XhZ7GQSw3pn4VEe9TcLgaBBf2sFou6uxBrR8UeirH6debNJPtMiLGwp7qanWfT+U3tQeaGTzfv87zjPqik9zbDADIi4AHADY3jIL34YmISIPvc5dytx6EOsMoYBPsZ3iZfl30e4PVALg6a1+dPwx1XlZ4ikexnNnzUwp7LmIZai5c/SJqsxuflwRsfB+zDVxFM7OEOwVcius9Xv955BU0PyngefHu0/y3H39wE2fktx9/6L5498lnHAB2TsADAJt71e8NDFzzJA8Gu8+jzlDnMX/M7EkD4KPpbDJWDdXX+iq8fNmi0z6KiJ8j4ud+b/AhhJq51mU39cM5b1Lf1KzHTgGX5W4PdbAKd3J7Hz7o9wadJwbEt5nXMACwAwIeAGjGRVqqzTJUPCqt8X8ey0HFgxY3xVEsl2+7iOVMhwv3TVV13ollqDMMA4+rUPMqlqHmXIXsrS67qSZL6n+bmtXSadG5rvW5LfJ9yKITT1uCbaGfBQAEPADQjONYDhYMNQUP9XuDYaoLG/D+2UFEvImI81XYI+gpus67sQwwX2qN/3IaEb8KenZek4ep7z2PMgfBm+oPsz/3Xff9/d5gHMsANlfdeNqyuXOfLQCA/9EEANCYV2kwH6LfGwz7vcEiIt6HAZhvWQU9i35vMNIcRdb5PCJ+DeHO96yCnnma0cd2avIw9SWLWC6XV+oMh+sG2qKEOrvZcX2MIu9wJ+KJ+/DE02b5sDseUgFgL8zgAYBmve/3BtfT2eRaU7RPemL8PP060CJrOYiINykkPZ/OJpeaJOtaH0bEKCwP9BynEfHvfm/wSyxn9BgU1P8+ZtHAaxwWcJ53O6yRYSwfKMjd4Q5rhIa8ePfJZ38A9sIMHgBa/4V/Cy7TQBMtkgaOFrEcPBLuPN9RRPwrzXLoaI7s6vzswcw04c5mforlzLUzTaH//dJ0Nlk08DIlzOCZ77BG3hdy+Z8UFLx492nu7s/GvSYAYF/M4AEg5y+3pS73cxTLAQtL8LRAGpy9CIPdTTuNiP/0e4O309lkpDn2XufdWM7Ysdxgsw5iGWheRcSZ2Txr12UnIsYV1uVtQ6/jYZP4Y6m6i4IO+WLNWvH5I4/vLQCwF2bwAMB2HKdNfKlUvzc4SXuPhj1lnwAAIABJREFU/CsMrmzTm35vcG3Pkr3VeaffG1zGco8d4c72nIbZPOvW5nlE/KfSulw09DrdAs51vu336vR3lDKz6/Was7fmeoP66xgAvkXAA4AvStvzKi0JQkXSBt4XEfHvMOC9K8ex3LPkXFPstNZHUfZsytKsZvOMLfP53T54HhE/V3yabZoNcLfNWonywp3xmn9mFM3N+MI9C0CBBDwAtO4L/469T0sbUYH0dP0ilntnsHs/p715DH5vt867aZ8d+0ntx6uIsAfVV2oz9cG1h+tNfQbKvp2ms8n1lmqltHDn7TPCnXjx7tMilksCv46Ij2EvmH24f/Hu06VmAGBf/vL7779rBQCy1O8NanmTuo+I7rYGMdhJLR7Gcp8HMxncU7XX+SgEmDnV+dl0Nplrij+WZPu5Jaf7j+lsctlAm+X+Oep+OpscbqFWVuHOcSHX+8N0Nhk29WK//fjDWSyX5zsLS8ju5Pq9ePdpqBkA2BczeADI2U0l53EQEZdmHZTpwawd4U5e99S/LYHYaJ13Y7nEjHAnrzr/VZ1HpD3tfm7RKd81dE/nblsh/ThaGu5ERLx49+nyxbtP5y/efepExN8i4p8VfabO0VgTALBPAh4A2vjFfx+OYrnkjpCnEGmfh8uI+FdYpipX79PAL5vV+kVE/Bqe9FbnefbD41guW+fzz3pK+Lxxt4WaGUc5D2Q0Hu586cW7T9cv3n26ePHu00lE/G9Yyq1pty/efZprBgD26a+aAICMXUddgzrHsXzK78ylzVu/NziJiMsw4F2CVyk4HU5nkzvNsXadj6OcJ93bXuex7cHgzOqztGW2GtNQX3ZSyOe8JmvmoqDPjR92fT+/ePfpLvX544g/lnJbLefm887zjDQBAPtmBg8AOZtXeE4vzTjIW9rn4d9hsKOo+yrMkFu3zofR0sHzgr3q9wbjNtR5m8OdiLhq6HVKqJNFw31aKUtMfsghrE1LuQ0fLOX2Nizlto6bF+8++UwPwN4JeADIVtpAvcYlJF6lEIGMPFiS7WetUaTjEPI8tdbHEfE+LD1Y5PtHS+r8MoSPmyphBs+ioT5tmPq0EtxERHafAdNSbqO0lNv/xeel3Pg6n+UByIKAB4DcXVZ6Xj/bODsfaamqeZSzbj+PE/J8u84P+71BbUtfqvP66nQcEactvr7zhl6nU8C5Lhp6/y4p3Onmvpzoi3efFi/efRq/ePfpLJb79vwjIj6EfXse+sXeOwDkQsADQO4uKz639/3ewH48e9bvDbphqaqaCHker/OTWA6mqvN66vyiwjotaQ+VbWlq8D/7ZUans8migX5tXsh1LSLc+dKLd5/uHizldhjLpdx+iXYv5Xbz4t0ns3cAyIaAB4DczSs/v3EaoGAP0iyqX8NSVbUR8vx3nc/VeXVe1bSnW2F7qGzTdQNt2SngPG8bOMdS+rUiw53HpKXczh8s5fbPaG7fqBLcR0RXNwVATgQ8AGQtfRn+UPEpHsRyIFrIs2PpSfH3WqJaQp74094Uwp06VRHypPfAC5czIpqZwdMp4DwXG9TLYSxneAt39igt5Xbx4t2nbiyXclvt21PrUm73EdF98e7TXQBARgQ8AJTgsvLzW4U8HZd6N9KAqCfF61flMlZr1rkQs36vSt7TLQ3Wj0MIGRER09nkuoGXKeHzxPUG9TKPMpabvI+IsxrDnS+lpdzGL959OktLuf0jlku53VZyiqtw5zoAIDMCHgCyN51NLiv6gvg1BxFxaUmp7UqbzI/DHg9t8qrfG4xaWOvqvF3ep/3ESjQKe0OtNPVZp1PAuT439LiMcsKd7qb7DJUq7dtz/uLdp04s9+15G+Xu23Mbwh0AMibgAaAU4xacoyWltujBU78GvdvnTb83OGtRrY/VeStdlrbcZ7ovzab8bNHQ65RQB9fPqJdxRJwWcG6rcEcgEH/s2zP6Yt+ej4Uc/seIOBHuAJAzAQ8ApWjLMktCni0obEkXtmPchr2uhDutdpDq/LCQWj0M++58adHQ65RQA3dr1kspfZtw5xse7NtzFp/37fkQ+e3bcx8R/0xLztlzB4CsCXgAKEJav/xDS073ONoxY2knhDskB7XfV8Idoqx9p0YRceSS/cmiodfJPsyezibzNfq2YQh3qvNg355hZvv2fIjlrB0BNABFEPAAUJJRi871ZRqsZQPCHb5w3O8NLiqt9XEId1h6lQbEc67XTlia7TGLhl7noKK+bRgR7ws53DPhzvNlsG/Ph4j4vxQ4LVwRAEoh4AGgGGmj2g8tOuVXQp6NXYRwhz/7qeDN6B8l3OGxvi+FKLny3va4RQP9QQn929Ua51JKuPN6nVlJfNsX+/Y8XMqt6dk9N7HcE+h/BTsAlOqvmgCAwowi4iwqejr1O171e4OYziZDl349Br35hnG/NzhJSz+WXucX6pxHrJYk7GZYs92IOHWJHmX2x+c6OYmIy0IO9/V0Nhm7atuR9sAZp1/x248/HMZyGcJuRHTSr5MnfDe4jWWIOk/32tz+OgDUQMADQFGms8kiDWi+adFpC3nWZNCb7ziKZVh8XnidD8MyV3zdab83OJ/OJrktSzhyab76GaeJweZuAac6/07fdpJ+poSHeYQ7O5ZCmfnX6ui3H3/oxDL0iYhYmJUDQO0s0QZAiS5i/xuw7lr2eyrkwqA3T/RTGkQstc7Popyli9ifUU5LtaV7zuydx9206FzvvlEjh7GcqSHc4VlevPu0ePHu0zz9WmgRAGon4AGgOOkJ1/MWnvp7Ic+3FbZeP/t3UWidn4Q9THiag8zq/Nwl+aqmlorqFnCu11/p2w5jOSujhL3z/incAQByIOABoEjT2eQyIj628NSFPF9R2Hr9u3Ify82sV79uNcmfnKaZMCXV+WoA9MDl44lepvA7h9q1dObXzRt6ncMCzvVrYdZllBHufMhw6UMAoKXswQNAyYax3Cy1bQOd79OePGMlsFTYki5Nu4rl09CL9M+76Wxy/cQ2O4nPGxR342mbFNfmIsoKBuctrfP7VN/XsRwcnqf//s16fxBsdOLPm3Eft7DO970k4dC71U5kX9uP3bP93mAcZSzf98GeiABATv7y+++/awUAipWevv9XS0/f2u+f6+AyIl625HSvIm0uPJ1N5ltoy5NYhj1n0Z69Moq4l/q9wUW0Z3+p21gGb9ep1hdbaM9uqvVuS2p9r3Xe7w2uo33B2jr+vmmfnoL7/5f5ed5PZ5PDL457HGXM7hLuAADZEfAAULyWDXp+6R9pubo2X//ziPi58tP8GMvB7su0B9Wu2vYwlk/dD6Pugdnb6WzSybzO2xBmf4xleHm5jUDnCbV+lmr9VJ033r6diPiPTyzf1ETA042IXzM/z6vpbNIt8D1cuAMAZEnAA0AVWvxk8H1EdJ+yJFel1/0kIv5d6eldxXLZuZ2GOt9p6/Oodw+NbGfxpMHx66hzababVOfjHOr8QXuPYhn4HKjzRtq0DUH8RqazyV8aaOdhRLzP/FT/CEoKOd6IiI/T2eRMlQIAObIHDwC16EY79+M5iIh5vzdoXciTnrivcfbSh4gY7XoGw/ek+hr2e4NRLAe/awt6zmMZNOTossK+7UMsQ515bgeW7r1h6mPOI+JNRe0+2lOddwtus5v4875POesUcIyL9B5+FmWEOzdh/ygAIGNm8ABQjcpnc3xP62byVLbvzn0sN0G/yGUWwxPavxPLgeKalrP6e26BQwrU3lRU55eRYYD5hFq/qKi/2fksnn5vcBdlhZQ36ZpfltInp3YeR/7h++tIe2sVUBM36bPVXQAAZErAA0BVClruYxtaE/JUtB9JccHOV67FOOqYYZLVHguF7Kfx5LaNwoKdimv9T3ug7KDdSnr44jYihjnOLHtiW88j/9D9bSxnxgl3AAAaIOABoDotX+u/+pAnLZu0iPIHWYsf8P7imoyjjhkO/5vJnkeHsXzK/ajw9ryK5YD5ooLaWM3muYzy93z7267eJwp68OJDRJyXPKDf7w0WFfQZORDuAADF+B9NAEBtprPJRSwHatpotSfPYcXnOI6yw52bWC4FVs2g93Q2uUsbUP+zgtMZZnIcoyh7oPY2Iv4xnU26tdR5qvXFdDY5qeA95nyHf1engPZ4nfrk0gf0hTvN9F3CHQCgGAIeAKqUlln62NLTrzbkSUsklTxL5O10NjkpdfmfJ9x3FxHxt1jOJCvVMIM6P4mInwpuw18i4mQ6m1xW/h7ztuBTONvh39UtoF8eV/D+eOLT38buI+JMuAMAlETAA0DNhrGcLdFGx1FZyJPO5aLQw7+J5ZJIo9oLLy371C343jtOy3Dt07jQtruP5ey08zYMkKb7+XWhh3+Qlk7bhZzfhz5W1C8fBpv2X63YxxAAqIuAB4BqpQHGbiyX22ij2kKe8yhz+ZkP0bJBowpCnuG+/uK0h1iJ+7tcRUSn1tlp36j1cZQ7k2dXs3hyref7yGdJxiaYwbNZLQh3AIAiCXgAqFoKec6i7CWjNlFFyJNmVLwp8NBr2dfhufdeN8oMec72VOeHsdx7pzS/pL12WrmsUZoBUuKePC+3/d6Q+bJhF5XVrBk8zyPcAQCKJuABoHoPZhO0OeS5KPwcxoUd72qpqnHL7727Qu+9fS3TdhHLPbRK8no6m5x7n5kMQ5j5mJxDh4vKyrDrE9/z2k24AwCUTMADQCukL+/DFjfBq35vMC7xwPu9QTciTgs65NXTwHN3XtEhT3fHdX4SEa8Kq/O/tT3EfKRm1Pke76M1fGzrjDP+5LVwBwAonYAHgNaYziaXUe6G2E0oNeQp6Snrm1juQ2LA6M/3XokB65k6/ypLGj1e53fq/L/kOoNnXmEJnroL1/JaQA0A1EDAA0CrpC/z/2xxE7zq9wajUg623xsMo5wN529iOejtqfDH773LiPiloEPu7rDOu1HO4Kxw5/t1/rGgQz7Y8j45ue7Bo37bTbgDAFRDwANA60xnk4soc0PsprxJwUkJRoUcp3DnaffeeZSzT8nBDvfhKaXOhTtPM4yylmrrbvG1OzmecG1LaKaQmKcR7gAAVRHwANBKaUPsNoc873MPedLxHRXQlvcRcSbcebJhQcfa3UGdd6OM2TvCnae/v9xFWUvubbPOc+zDbyssu0N33pP8U7gDANRGwANAa6WQ52OLm+D9lpfm2dSogDZcDXov3FFPvu+uI+JtIYd7os7/cCbcWavOR1FOkLCVOs/4/aXG/vrEXfddH9IMbgCAqgh4AGi7YZSzZNQ2zHMchCto9s7QoPezXEQZg98nW67zbpQxe+d1bUta7ciokOM86vcG25gBkuuskkWFtWYGz7d9SA/1AABUR8ADQKulpXS60d6Q5yAixlsa3NvEsIC2e5s2VOd5992ogEPddvhyXkAbfLCk0bPrfBztnsXTzfRcFxWWmxk83+7DhpoBAKiVgAeA1nsQ8ty2tAmOIyKboKKQWQ1XaQkmnn/fjUu45/q9QWeLr/sy89O/MTC6sVKWhOpu4TVznVVS46xLM3i+7lwTAAA1E/AAQPwR8pzFck+VNjrt9wa5DEQOM2+r+1QrbG5UwDF2Wnru6rwZ40LeV7YREOQ6q+Suwjo7dqsV/T4DAPBsAh4ASNJeKt1ob8jzU7832OuAbprV8CrzdjpLgSCb33PjAu637hbq/DDyD0/Op7PJQpVuXON3kdEMyW/YRhjTyfRcq5rBs61ZhpV9trGEHQBQLQEPADwg5InxngeLhpm3zwebzTfuooXnfBbL/a9y9dG+O62r8W30+0eZvs/XFtB33GLfdZnhXoMAAI0Q8ADAF1LI09Y12w9iv0+bDzNum/uwlv82jDM/vu4WXvM88zofKsvG31Ny32+q0TAm41klNxWWWMdd9qT6vtAMAECNBDwA8Ij09Prrlp7+cb83GO36L+33Bt3I9Inv5NzSbFu51xZR56Dr1+r8JPLeL2OkzrfismXn28n0uO60dWu92vcytAAA2yDgAYCvaHnI82YPa9YPM26PG0tWbVXObXvSsjr3lHv7ajwi/gjZc71vmjKvsLbsL7PGfWjPIgCgNgIeAPiGNKj/tqWnP97x35fzk7WWZtuunGc3HKhzGngvKWGZtibZ70Rb59qfjzUDAFATAQ8AfMd0NhlFxIcWnvrOlmpLy6bkuun81XQ2mbsTtnqPLaIFg9+pzo/UeWu1qX3N4NHWuTrdxzK0AADbIuABgCeYzibDaGfIc76j5UxyntUwcgfsxDzXA2vwHlDnarwtcp1VUuMePAdurbXtYxlaAICtEPAAwBOlkOdjy077IHYz8JvrwLdZDbtznfGxdRp6na46b7U2tfFppu/j1zU1spBiI5f93sDydgBA8QQ8ALCeYUTctOycXzW8+fafpAGqXJ9AtuH87lzXfHKpzo/UeXsVsBRh7YPd9xWek4Di+Y70fQBADQQ8ALCG6WxyF8un8NsW8oy2+Nq5zt65nc4ml6p+Z/fWvPJTVOdERCwyPrZGZoNs84GADdUYInfdUht5lfZGAwAoloAHANbU0pDndIuDdrkOroxV+87VfE/lWueeYN+tecbH1lQAkuuskoXy47H3+h3tNQgAsBUCHgB4hhTyDKPOJV++ZtT0C6b1748zPd+xSt+5GjdAV+c8dN2C+y/XfWEWFdZT1y21sQP9IABQMgEPADxT2qy5G+0JeU638JRrN9NzvUr7ZbBb80rPK9c6/5jCananDe1tBo+2LvHzzUgzAAAlEvAAwAZaGPKMGn69XJ/0HqvuvVhUel7dTI/L3ju7f8+Yt+A0zeDZnWN3VWPe9HuDE80AAJRGwAMAG0ohz3lLTvcsLTfVlG6m5zlX2XuxqPS8cq1zAQ/bYAbPDjT8XszSWLsCAKUR8ABAA6azyTgiXrfgVA+i2c3iTzM8xxvLs+3tPppXemo5PmV/ZXm2/fUxlZ9flrNKKuzXS5htcl9g7Y50UQBASQQ8ANCQFPK8bcGpNhLwZLwUilkNe1Ljk9P93qCrzvlCrsHadcX3cI2hWgn95TwiPhbWrj/1e4OzAAAohIAHABo0nU1GEfGh8tN82dAgXifT85ur5L05cU7qnL29f91VXO81zlYrob+8johhRNwW1raWagMAiiHgAYCGTWeTYdQf8jTxdOtJptdvroppUI51fp/2DmM/FhWfWyfT47rW1vup9RQcDgtr24MwyxEAKISABwC2IIU8Ne+zUGvAc6N696qT6f08r+ychDv7tcjwmO5rvoejzhk8nVJqPfWhvxTWvqf93uBcdwUA5E7AAwDb0416A4NuA6+RY8AzV7Z71anwnE7VOQW4rvwerrHmS+gvFw9+P4rylmr7OeP9AgEAIkLAAwBbk5Yl6UZzT0bn5KCBQY+jDM9roXL3qlPTyfR7g1zPR53jHi7fUe4HOJ1NFl98JhoW2M724wEAsibgAYAtqjzk6T73D2b8RKylq/ark+ExXVV2PhECHv7bXcX3cHV7q2UcHj9085XrUNpSbcexnH0EAJAlAQ8AbFnazLxb4altEtJ0Mj0nAU+5NZWjLOu8tsFusur7jjRle/uWL3wtNBxFeUu1/dTvDc6UHQCQIwEPAOxACnleV3ZanQ3+7Emm1+lOte5HeiL9IMNDu97TPQIl3sM5uqqwuUsIw6+/8T47LLDNLdUGAGRJwAMAOzKdTcZR3tIk37LJ5vE5Dk7dqNK96mR6XJuEfofqnEJq/do9XJQSgoa7b3wemkfEx8La/CAiLnVfAEBuBDwAsEPT2eQ8yhvU+KoNnmbtZHg6Zu/sVzfT45pv8GdP1Dkt6v/srbY7xc7geWAY5e1PeNrvDc51YQBATgQ8ALB7w6jnKfrnDjIdKwO+0M30uBYuDS3QRJ3nOqvEDJ4M273gpdp+7vcGJwEAkAkBDwDs2INBjfsKTmftQaaM92lYqM69ynVfpsUu7w8osM6zvoejzhk8pwXU1PwJP3MZZc5qth8PAJANAQ8A7MF0NrmOMp9c/dJzBvQ6mZ7LQmXuR3oa+iDDQ9t0c3Yz1Wiq39ymph42yHXAW9+et2GU98DLcUSMXDoAIAcCHgDYk/Tk6i8tPHVLm/Cls0yP69qlYQsOKq3zGmfhZaffG3QLOMyrNa5PqUu1/dTvDc4CAGDPBDwAsF+jqGc/nqfquOx8QcBDK2S6rFNTe9TkOAvvVtXlX1OWagMAeD4BDwDsUcFPrq50nvFncp3B01WRu5f2ZMp1KTMBD007qbHOM55Vsqiwhkp4r3pOTQ2jvKXaDiLiUrcGAOyTgAcA9iztx/O20MPv7OjPUK9upsd1n+7N2njanC/dVXxuC/dwGTVV8AMvp/3e4Fw3AgDsi4AHAPJwEe1ZSubI5eaBXAfG5pW297GS26tuhsd0Xel5RdQZ8JSwj92zaqrgpdp+7vcG9hcEAPZCwAMAGUhPro5qP8/MB0BOVeLO66ET+QYOc1eIlmhiBk+us0rMwiuvpoZR3lJtERFjXQkAsA8CHgDIxHQ2GUf9s3iyHpiyWfLO5bysTbX7KmS8X0obZBdyN7QUYa7hfY3Lz2U/C2+Tmip4qbbjfm9woYsDAHZNwAMAeSltcGCx5s93Mz8fS6zs1jDT47qdziaLitu9o/T2JrcQ+b7S81qpagZPmvWYu40fVElLtV0VeIl+EqADALsm4AGAvIwLO97Fmj+f+wwZAc+O9HuDYUQcZHp4l5U3vzrX9itNBSBZzipJs0Fq0qnwc8HXDKPMpdouzQYGAHZJwAMAGUmDUVcVn+KJ4yMZZXxs88rbXp3vT26h5sYBSMazSmp8L+0UcIyLhj4PLaLMvQkPwn48AMAOCXgAID/zis8t96dau8pv+9LsnaNMD+8+LQ/UhJtMz/HUE+Z7qfscg7UmZvB0XN2dKaGtF0290HQ2uYgyg7qX/d7gXLkCALsg4AEgW/3e4LDfG4xauGntvKBjXXdwMPfNoY8K2eOgdKOMj63J5dlyXh6qqwx3LsdQbdHAa+TaZ84rrKES3p+a3vdoGGUu1TbKNNQFACoj4AEgO6tgJ5YDT28i343Yt6WkTaHv1riunULO6cxduNX7exj5zt6JaM/SOup893LsAxeVnpcaKuBzwVNYqg0A4NsEPABkJQ3+LmIZ7Kz2KjhI/70VCtsUep0wqlPIOQ3diVu7vw8jIucZebfT2WS+p/tj17oqcudy7AMXDbxGrrMU5hXWUAkzQhrv9wpequ24hbPQAYAdE/AAkIV+bzDs9waLiHgfj29CPdJK+VkzjOoUclrHlmnbmlHkt8n8Q+OGXy/nsPao3xuYxbNb2fUraXbEpnLdz+muwho6yP0At/iQyjDKXKrtp35v0NX9AQDbIuABYK/6vUG33xvMYxnsfGvZpqM2zeIpxLpP03YKOje11vy9fhIRP2V+mOOGX2+R+fkKeHYrtz7wpqHXyXJWyXQ2ua6peArZz+Vmi9dzEeU+7HOZZrACADROwAPAXjwIdn6NiNMn/rFzLZeVxZo/X9Jmw0OXt3HjzI/vY0OzGTa5R3btlUHHnepkdjxNzbTIcVbJfYX1U8K9utVZUwUv1WY/HgBgawQ8AOxUvzfo9HuDcawX7KwcW+YiK+s+HV3SQLIZY83e9xcRcZz5YV5kcI/sg+B8h/1K4X34Y/d2rsH9dYX1U8Lnn/kO/o5hlBngvez3BvpbAKBxAh4AdqLfGxymYOc/EfFqg5cataCtuoUc6roDaCeFXYqRO7eRej6L/Jdmu53OJvOmXzTtRZH7QOS5WTw7uQ86GR5WE7Mt7L/DThW+VNuokKX2AICCCHgA2KoU7IxiuVTRqwZe8rQFX46LOL9nDIgfFHYdzOLZ/P7vRBnL0oy2+Nq5zyQ4CLN4dqGT4TE1UZvdTNvbDJ79mO/iL7FUGwDAZwIeALbmQbDzJpod3K99MLJbwDFerVkLpYZyI3fys+//w4i4jPyDvdvpbDLe4usXsUybWTxbl2MfWPMsl4WSq76mSv0seJyWLQUAaISAB4DG9XuDYb83WETzwc7Kq0yXu2mi7Q4j4mUBh3q55s+XOnh8lIJK1jeO/Pfdidh+iDcvoA0OYjt7EJF3H1jzDJ5FhTV0mvsBTmeT6x3/XW8LvZY/2VMSAGiKgAeAxvR7g7MU7LyP7W8mPaq0Gc8KOc75mj/fLfianNcaKG6xLxhHGUHltmfvRJSzVNQrA45r1/k6oU12M3jSHlGbyjW8X7S41vblfg81PIqIm0Iv66WZkwBAEwQ8AGys3xt0+73BPCL+FdsPdlZqncUzKuAYb3f5lG4GrJm/Xn8wjmb226rifksbgt8W0h5jA45PrvNhrLdEVG7t2tSgeJaz9NJ9V5MSljnd1+eCoc8WAECbCXgAeLZ+b9BJwc6vsZ+lQ8aVtecwdheQbeLyGX+mW/jlObVU25NqeBzlhDu7mL2zMi+kTY7CUm1P7avfx3oD2rkN0N810A65hoE3FZZdCcHrXvZ0Knyptpf93qD2fSUBgC0T8ACwthTsjCPiP7HfNeFPa1lSKA2UjQo53MuWlv4bS1h9s4bHUU64Ezu+3+YFtcurFGDw9Tp/n/51nQHtg8xOpYnZFrnOKrmrsPTM4PmGwpdqG/V7g5MAAHgmAQ8AT9bvDQ77vcFFLIOdXAZyx5U07yjKmL1zO51N5s/4c6eVXKdL+/E82jeMo6xw52qHs3ciygp4IiLeG3B8Up1fP/HP5diWNe+/U+MSoiXM4Fns+e8fFnptLdUGAGxEwAPAd6VgZ5S+vP+U2eEdlb50Vr83OMuwXb/msuW3w0HYGPnLvuE6ygp3InY8Wy7tB1La0+VzIc+f6nz8ZZ1PZ5OnhiQ59hdm8JSlhHtxsc+/vPCl2o4tAwsAPJeAB4BvSkv1LCLiTeS3xMxKsUtnpQHUcUGHfPGMc+xWdlscx3Lw+7DlfcNJLAeJjws79A/PnIW2qXFh7XQQQp7V8pnz+O8Q82qNl8mxD2wiBOk22GAjAAAbP0lEQVRketlqnMHTKeAYF/s+gMKXarMMLADwLAIeAB7V7w2G/d5gEcu9Bg4KOORxaQPuaeB0Xkj7RiyXtVq4OyKi5SFPCn7nUcaygg/dR8S+NrQucfZbq0OedN6LKC/E/K6GQs5OpqdX4wyeowJqKpfPB8OCr/PYDGEAYF0CHgD+pN8bdNOSS++jrMHboyhon4sCw52I589A6FZ6u7Qu5ElLVV1GOcHvl87XWFarUYUu0xbR0pCn3xucR8S/v1Hn67zf1NoHdnI8qD3N0NtmLXYKOMybjK5/yUu1HYX9eACANQl4AIiIP4KdeUT8GuU+rXyc9knIva1LDHdud7wpfTE1FxHXbRj8TkvHXEfEy0JP4SqDGi71HlqFPGctqPNOei/8ucGXzS0EvmrodY6CXegUcIxZzZpKS7XdFnq9X6ZZsgAATyLgAWD1pPKvEXFawem8yjnkSV/av/VUeK4uNviz3cpvoaNYDn4PK+0fDvu9wUXqI0od0L2PPJbtGRdcCgcR8a9UC7W+Fw5jGWI+5b1wvsZLH1fYVrmG2lcVlmYJDxDkuO9Rye/JF4XM3AIAMiDgASDXL+abyC7kSYPk41gubVWa+7BkyPccRMT7fm9Q1fr5acB7ERE/FX4qoxz2h0jLw30svC1/6vcG1zUNPj6YtbPO0oN3T3ztHPuDeQOvkWs/V+P+OyW8p2TX7mmpvl8K/kxxGQAATyDgAWD1Jfi2stN6lQYh9z4w8mBpq1eFtuXFhvuWnLbodnoVyyXbil7K6sGSjaXutfPQx+lsktOskxpmwKyWJhwVXuer4P0/6/ZTaZ+Pp6h1+cZcz+taW2v3B0YFf749Lr2PBQB2Q8ADwEqNy+4cR8QiBSw792DwsPSlrS7cHms5iuVSVvPSZjmkmQyrmq0hmMtlabY/VBSoH0TEm35vsLc+dsO+eRTL2WmvnllXT5VjHzBv4DXM4NkdM3ie39/eRdlLtb0prX8FAHZPwAPAyrjS8zqIiF/7vcHFrmbzNDB4mJONZu+0fGDiNCL+k5Zt6+R8oP3e4OTBTIZXFV2Dsw1nn23LqKI2Pkp97Dz3+/1BgLmIiDfx/Nlp68xWyPHeb+KeMINnd7KfwZOC65yP7ZeCr39VS78CAM0T8ACw+gJ8FxEfKj7Fn2I5m2e0rS/KafBwFJsPHubidjqbjNwdG3sVn4Oebk4H1u8Nhmkptn9HXcFORMTbXAcdp7PJOOpbFvM0Mgx6UuC+qvNVgLlp37xOQNLJsP6aCEHM4Nmdg2BTo4L73KOwDyIA8A1/1QQAPHAZ9Q3yPnQQy+DlPD3FfbHpxuspLDpLv15W1l6jBl6j67b6w6tY7g11G8tl7y43rb9n1uxJLJesGUa9A4dXBYSTo1jucVSbVdCzqvPxPmZRpX2wVr+arvOSZ/DcN3ids9NQeJWNQmbBXuV+gNPZ5K7fGwxjufxoiV72e4NhejgAAOBP/vL7779rBQD+0O8NFlHufjHPcRPL/QguI+L6KQORacClG8tlU15W2i5X09mk20A9jWIZqvH1+ruMZdhzvcX7+izV7FkL7u/biDjJdGm2tva3H1Odz7cVaqbgctU3b7tffv3UgdZ+b3AXeQWpTfXtOX6JvJ3OJp3KPpN1I/9Q4uN0NjkrpD0vYjmju0T36b1tEQAAD5jBA8CXxtGuAfnj9Oun9OX/Pr7+dPZJtGeplPOGXqfrlnpS/b15UHvz9M/Fc0KfNCDYSfV6Epk+ab8l95HvvjuPGUWds3i+9DL9ijSzZ1Xj189ZRi+FOasa7+6hb16s8bO5vWcsNn2BjGeVLCq8d0p4Dy1p1tQoyn3Q4SCWQflJAAA8IOAB4EvjaPeMi4No14D4Y36pbZmbwmrvj/rr9wYRy9Di4fW4juU+E5348/JPbQogv+a8pNqdzibjfm9wHsuQry2OIi1X+KDGI/57mad5qunDDGt88ZQfSkFUbhYNvEau++8sgn0oZt+jCpZqO+73BiP7IwIADwl4APjyy++i3xt8jHqXHuPb7qOZvXdWTjXpxr4MHbXp494Wuj/BeZQ72Nik01L6jjWWSMoxCFk08Bq5ziBYVHhfdAs4xqIeCJnOJvN+b/Ahyt1z8k2/N5g/Z/YjAFCn/9EEADziQhO01rCg5a1g5UOpTzSnQboPLmExbtb42W6Gx79o4DXM4NmdwwKOscTPDOexfKClVON+b3AYAAAh4AHgEWnA8VZLtM7H6Wxy2dSLZbxPA3W5ms4mw8LPofTBxjYpPQBfNPAaZvDsTvbLN5a4pGt6kKXk942jWC6pDAAg4AHgq0aaoFXuo+zBDtrpJpYbZhctDTaeu5xFWGcwu5thrS0aeJnDCq5N9gqZoVHsw0DpgZaPBZfIy7SfEADQcgIeAL7mMjxR3iZnW1iaratZ2aKbiOjWsqRg2j/oymXN3jr1dpjhPdOE40zvodqWFz0p4BgXhbfxsPDPuhf93qCjWwaAdhPwAPCoNFBiL552+MVmvRTmNioKdx44C8F67taZJZJbELLx/ZLxYPJNhbXWKeAYFxV81h0WfAoHsXwgCwBoMQEPAN9yEQYba3cznU22tTRUV/OyBfexnRlne1fBYGMbPKnuMl1eq4klzDolX5fCdAo4xkUF/W7pS7Ud93uDka4ZANpLwAPAt770msVTt/vY7v4lh5qYLdRst8RNvdfody8j4heXOtvrM3/ij+a4vFYTIUgn00szr7DcOgUcYy198TDKfqDpTb836OqhAaCdBDwAfI9ZPPU6a2jD7a851sQ0qPpwZyXNqrtxyYvWyfCY5pWelxran1r2QKth9uQ405mDAMCWCXgAeMqXXrN46vN6m/vuGGSgYTfRknDngW4I13NztcbPdiptg5NMj2teYVuXUEPV9MkVLNV2FBFj3TQAtI+AB4CnuIjlpubU4cN0Ntn2IMCJZqYhbQx3VuF6N4Q8OVlntkInw5qaN/AywvvdOSqkn6rJsPA+92W/Nxi6dQCgXQQ8ADz1C/y5lqjCh+lssosv/x1NTQNW4c5dG08+hVr63nysEzLm1gc2NWh9kum9Mq+p0Pq9QQkPSVS3jGQln3cv+r2Bz2AA0CICHgCe+qX3MtZbnob83MTuBi46mpsNfYwWhzsP+t5xRLxWDllYpxZzG6BvagbcQYbXpcZZboeV3Q+l9bklf949CEu1AUCr/FUTALCGYSwHiQ40RXF2PROio8nZwK5mmhVhOpuM+71BNyJeaY29Wickye19cuO+P+NZJTUu31jCDJ65z7vZOu33BqPpbDJq8kX7vcEoIt48849fTWeT7nde68nv/f3eYPzIe+Lbps8ZAEpgBg8ATzadTRYR4YtTefaxzFVHs/NMr4U7j/a/w4j4oCX26kl9aKZBSBMhyGHJ16Uw9jryeXdTbwpZ6u+hs35v8N3aTz/jgQcASAQ8AKz7pfciLNVWkn3tYXKi6VnTfUT8PS2Pw+P97zCEPPts/6eGJDkOzi8aeI1uppfGDJ79mPu8m73LpwQmGTmIiLMn/NxZAAB/sEQbAM9xFsvBIku15W2fG9SrDdat1bP01DTfMJ1Nhv3eIMLTy7t2u8bPdjM8/prvLTN4tPu2DKPspdqOIuIinUcT7z+jeGRm0xfLrf1pKbZnOI/v7yF0HgDAH8zgAeA5X/DuwtNzufsQewp3ClwShDxqdaEpntwHDyPiFy2xUwvHbwbPDp0W0A9d137TV7JU26t+b5D7Z/abWM7ijYg4/tbnyPT/jtO/3odVBQBAwAPAs7/0ziPin1oiSx+ms8lwTzN3IuwdwNPcR9pvZ4+1WnIffB4Rr7XEzizW+NluhvWycG1ouP9uS19bw1Jt435v0Mn4+O4i4vLBv39rhs7D/zd2KwKAgAeAzb/02g8iLzlsUG8GD99zFREn9tvZuA8eR8Q/okWDrXu0WONncwu5bxp6ndNM74NFTYXW7w26BRzmdcvu/2Hh/exB5B+GXDz4/dk39g46+8qfAYDWEvAAsJEUJnzUEnuX0wb1ZvDwLW+ns4kl2Zrrgy9jOWPkVmts1ToD2seZHXvNM+RqrHv77+TXzy6i/DDhNO2Vk2sbX8fnMPogHlkKut8bDOPzfkhXPkcAwJKAB4AmDKO5J4RZ31VEdNKyeTnoZthG6jOPOv1b2qSZBqWBsZMQtm/Tkwa0v/HU+T5tPNsi41kliwprrYRZsG2bwRPpvav0zxJvMt8ncfzFd4vHvm889rMA0GoCHgCa+NJ7F8tBfYPou7eaDWEPk6+7mc4mJxHxVlPsxX1E/DPV6bXm2F4/PJ1NzsLeaNtq3/kTfzTHwdMm3h9ynVWyqLDcSpjBs2hpVzCs4BwuMw2iI/4c2pw+3Dco/X61TOS9JV4B4DMBDwCNeBDyXGmNnbiN5ZJsowyPLbd9Gu5SjY4i4m8hiNylD7GcXWad/N31xRfqfK9yHDidN/AauT71v6iwhkqYwbNo482dHlIo/WGRo8h0ubn0XeLh3p7nD34/fPD7S281APCZgAeARr+YTWeT7hdfzmjeL7HcoH6e24Fl+lTo/EGNXpvNsxNXsQwgh2aX7aUvVufN1/NTnVTaBmbwoN2jmqXaXvV7g7NMj2384PfDr/zeQyMA8ICAB4BtfPkdhoHFbbiJ5aD5ecaD5ieF1OgoIv4vzDhr2m1EvE7Lsc01RxZ1bjbP5u4Kr4Mm7kUzeHbntICaWrS8TxhWcA7jh0ugZdZf3aZ/Pej3BsMURh2tPgtb7hUA/kzAA8C2vqCNIuIfsdx/g82s9jA5KWDQvJjliaazySLNOPtHfB5M4HlWwU7HuvjZ9cWr2Tyv9cfPtk5NdzN8/6i1b4+IMNC7e60PjCtZqu1gzb5tlx7O0BmG2TsA8E0CHgC2+QX4MpZP/Xp6/Pl+ibL2MClug/EHdfo2DICvS7BTTn88joiOOl/bx9RHlKqpAOQ407quagnIfm/QLeAwLbsZ1SzVdtrvDUYZHtfDPvc0Il6m39+H/XcA4L8IeADY9hfghb0gnuVDRPxf5suxPaaTYQ1eP+Fn7tJgTScMgD/FVUT8Q7BTXH+8qvOTsFfa99ynvmC45p/LbXmtjd8/Mt1bLcLDI/ti1tRnwwrO4U2/N8jq4Zy0BODHR/7XpX39AOC/CXgA2NWXtVEs94Kw58m3rYKdYaFr3HcyO577NetU0PPttvwQEX9Le+x4irbc/niR9kr7P3X+X25iuZxdZzqbjCoYTGxiMD7X/XdqHOgtYR87A+yf+9LrWM60Lt1lhkHu+JH/Znk2AHjEXzUBADv+Itzt9wbDiBjF5w1T2+4+fWkdV7BxcSez47l+Zq3eRcSo3xtcRMRZy+v1JtWnJ2fr65MXD+p8GBHnLa3z1bI/F5ts3p3bU/BJE+8p9t/ZncMCjtEMnj8bxXLvreOCz+Eovc8PM3p/uuz3BrcP3pNuN+mfAaBmAh4A9vGlbRwRY0FPXMUy1BlXdE65XcvFhrV6F8unSMdpb4RhRLxqQW3epPO+rCB05Gl1fhERFy2r84+pxpvqg3McnG/i/jWDZ3fM4Cmw/0yfZy8L/zz7qt8bRJrdmYtxRLxJvzd7BwC+QsADwD6/FI+jfUHPbXx+UnxR04n1e4NOhoe1aLBe5xEx7/cG57Gc1XMWnzf+rcFVqk2hTrv75Zrr/D4i5g/qvOmB6uuI+HuG13NT80yvZ43LRF5G5jNkGqqp2vrN6zSD7ywy3IvwC4fx9SCx00AfsWjwz4y/8vsvf2aeeV8FAFv1l99//10rAJCFip8cX4U645qXl0jX79fMDuv1NmdIpTXrV4Pg3Yg4KOiS3cRyMGQeEXPLr/GEOu+mf5ZY55cGpgEAgNoIeADIzheD5qU+Ob6aDTFvy5rh6Yn/nzM7rL/vclA3hVyrXyeRz0D4fSyfCp+v/inQYYM6P/mizo8yrPN5RFyrcwAAoGYCHgCylsKebnx+cjzXZdyuouWD5/3eYBSf10rPxf/u81qkgfBOLAfBu7FcGmWbGzHfxnKpk9WveUQsLLnGDvrpVY13HtT8tgLOVZCjzgEAgFYT8ABQlLTPy0l8Hkzc9SyJ1cDiH7/aMkPnCdfmMjKbcTWdTf6SaVs9XAO/+8X/PonHN2u/i//em2Ge/mlwm1z7hVU9P7bvQ/eJdX6d/vud/hYAAOAzAQ8AxUuhTyc+D4w/HFBcd7bEKsCJ+PNMiEVY7ud712EeEacZHdLNdDY5cWUAAACAGv1VEwBQujRzYRGfZzN8UwqEDj0J3rjTzI5HGAcAAABUS8ADQOtYyqo15poAAAAAqNX/aAIAYFP93qCrFQAAAAB2R8ADANRqrgkAAACAWgl4AIAmdDM8JnvwAAAAANUS8AAATTjM7YCms8m1ywIAAADUSsADADThJLPjuXdJAAAAgJoJeACAJuQ2g8fsHQAAAKBqAh4AoAnHmR3PwiUBAAAAaibgAQA20u8NOhke1sKVAQAAAGom4AEANtXJ8JgWLgsAAABQMwEPALCpTobHtHBZAAAAgJoJeACATXUyPKaFywIAAADUTMADAGyqk9sBTWeThcsCAAAA1EzAAwBsqpPZ8dy4JAAAAEDtBDwAwKZOMjueO5cEAAAAqJ2ABwDY1EFmx3PtkgAAAAC1E/AAAM/W7w1OMjwsM3gAAACA6gl4AIBNHGZ4THOXBQAAAKidgAcA2ERXEwAAAADsnoAHAKjKdDaZawUAAACgdgIeAGATXU0AAAAAsHsCHgCgJleaAAAAAGgDAQ8AsInTzI7nziUBAAAA2kDAAwA8S783OMzwsK5dGQAAAKANBDwAwHOdZHhMZvAAAAAArSDgAQCeywweAAAAgD0R8AAAz2UGDwAAAMCeCHgAgOfKbgbPdDYxgwcAAABoBQEPAPBcuc3guXdJAAAAgLYQ8AAAz9XJ7HjM3gEAAABaQ8ADADzXUWbHs3BJAAAAgLYQ8AAAa+v3Bp0MD2vhygAAAABtIeABAJ6jk+ExLVwWAAAAoC0EPADAc3QyPKaFywIAAAC0hYAHAHiOTobHtHBZAAAAgLYQ8AAAz9HJ7YCms8nCZQEAAADaQsADADxHJ7PjuXVJAAAAgDYR8AAAz9HJ7HgWLgkAAADQJgIeAOA5jjI7noVLAgAAALSJgAcAWEu/N+hkeFgLVwYAAABoEwEPALCuTobHdO2yAAAAAG0i4AEA1tXJ8JjuXBYAAACgTQQ8AMC6Ohkekxk8AAAAQKsIeACAdR1mdjxX09nEDB4AAACgVf7y+++/awUAYC393uAkMgl6prPJ3BUBAAAA2kbAAwAAAAAAUBhLtAEAAAAAABRGwAMAAAAAAFAYAQ8AAAAAAEBhBDwAAAAAAACFEfAAAAAAAAAURsADAAAAAABQGAEPAAAAAABAYQQ8AAAAAAAAhRHwAAAAAAAAFEbAAwAAAAAAUBgBDwAAAAAAQGEEPAAAAAAAAIUR8AAAAAAAABRGwAMAAAAAAFAYAQ8AAAAAAEBhBDwAAAAAAACFEfAAAAAAAAAURsADAAAAAABQGAEPAAAAAABAYQQ8AAAAAAAAhRHwAAAAAAAAFEbAAwAAAAAAUBgBDwAAAAAAQGEEPAAAAAAAAIUR8AAAAAAAABRGwAMAAAAAAFAYAQ8AAAAAAEBhBDwAAAAAAACFEfAAAAAAAAAURsADAAAAAABQGAEPAAAAAABAYQQ8AAAAAAAAhRHwAAAAAAAAFEbAAwAAAAAAUBgBDwAAAAAAQGEEPAAAAAAAAIUR8AAAAAAAABRGwAMAAAAAAFAYAQ8AAAAAAEBhBDwAAAAAAACFEfAAAAAAAAAURsADAAAAAABQGAEPAAAAAABAYQQ8AAAAAAAAhRHwAAAAAAAAFEbAAwAAAAAAUBgBDwAAAAAAQGEEPAAAAAAAAIUR8AAAAAAAABRGwAMAAAAAAFAYAQ8AAAAAAEBhBDwAAAAAAACFEfAAAAAAAAAURsADAAAAAABQGAEPAAAAAABAYQQ8AAAAAAAAhRHwAAAAAAAAFEbAAwAAAAAAUBgBDwAAAAAAQGEEPAAAAAAAAIUR8AAAAAAAABRGwAMAAAAAAFAYAQ8AAAAAAEBhBDwAAAAAAACFEfAAAAAAAAAURsADAAAAAABQGAEPAAAAAABAYQQ8AAAAAAAAhRHwAAAAAAAAFEbAAwAAAAAAUBgBDwAAAAAAQGEEPAAAAAAAAIUR8AAAAAAAABRGwAMAAAAAAFAYAQ8AAAAAAEBhBDwAAAAAAACFEfAAAAAAAAAURsADAAAAAABQGAEPAAAAAABAYQQ8AAAAAAAAhRHwAAAAAAAAFEbAAwAAAAAAUBgBDwAAAAAAQGEEPAAAAAAAAIUR8AAAAAAAABRGwAMAAAAAAFAYAQ8AAAAAAEBhBDwAAAAAAACFEfAAAAAAAAAURsADAAAAAABQGAEPAAAAAABAYQQ8AAAAAAAAhRHwAAAAAAAAFEbAAwAAAAAAUBgBDwAAAAAAQGEEPAAAAAAAAIUR8AAAAAAAABRGwAMAAAAAAFAYAQ8AAAAAAEBhBDwAAAAAAACFEfAAAAAAAAAURsADAAAAAABQGAEPAAAAAABAYQQ8AAAAAAAAhRHwAAAAAAAAFEbAAwAAAAAAUBgBDwAAAAAAQGEEPAAAAAAAAIUR8AAAAAAAABRGwAMAAAAAAFAYAQ8AAAAAAEBhBDwAAAAAAACFEfAAAAAAAAAURsADAAAAAABQGAEPAAAAAABAYQQ8AAAAAAAAhRHwAAAAAAAAFEbAAwAAAAAAUBgBDwAAAAAAQGEEPAAAAAAAAIUR8AAAAAAAABRGwAMAAAAAAFAYAQ8AAAAAAEBhBDwAAAAAAACFEfAAAAAAAAAURsADAAAAAABQGAEPAAAAAABAYQQ8AAAAAAAAhRHwAAAAAAAAFEbAAwAAAAAAUBgBDwAAAAAAQGEEPAAAAAAAAIUR8AAAAAAAABRGwAMAAAAAAFAYAQ8AAAAAAEBhBDwAAAAAAACFEfAAAAAAAAAURsADAAAAAABQGAEPAAAAAABAYQQ8AAAAAAAAhRHwAAAAAAAAFEbAAwAAAAAAUBgBDwAAAAAAQGEEPAAAAAAAAIUR8AAAAAAAABRGwAMAAAAAAFAYAQ8AAAAAAEBhBDwAAAAAAACFEfAAAAAAAAAURsADAAAAAABQGAEPAAAAAABAYQQ8AAAAAAAAhRHwAAAAAAAAFEbAAwAAAAAAUBgBDwAAAAAAQGEEPAAAAAAAAIUR8AAAAAAAABRGwAMAAAAAAFAYAQ8AAPz/9uyABAAAAEDQ/9ftCPSGAAAAMCN4AAAAAAAAZgQPAAAAAADAjOABAAAAAACYETwAAAAAAAAzAQwo958j9yRKAAAAAElFTkSuQmCC;" vertex="1" parent="1">
          <mxGeometry x="-1120" y="360" width="196" height="91.88" as="geometry" />
        </mxCell>
        <mxCell id="9xqURl-d2IsDU-9S28Iz-4" value="&lt;font style=&quot;font-size: 24px;&quot;&gt;&lt;b&gt;Visualise results and monitor Data Quality (dashboard)&lt;/b&gt;&lt;/font&gt;" style="rounded=1;whiteSpace=wrap;html=1;fontSize=18;imageWidth=60;arcSize=12;imageHeight=60;align=center;spacingRight=12;verticalAlign=middle;spacingLeft=0;fillColor=default;" vertex="1" parent="1">
          <mxGeometry x="128" y="75" width="370" height="100" as="geometry" />
        </mxCell>
        <mxCell id="9xqURl-d2IsDU-9S28Iz-8" style="edgeStyle=orthogonalEdgeStyle;rounded=0;orthogonalLoop=1;jettySize=auto;html=1;fontSize=24;endSize=10;strokeWidth=2;entryX=0;entryY=0;entryDx=205.53;entryDy=21.15;entryPerimeter=0;exitX=0;exitY=0.5;exitDx=0;exitDy=0;" edge="1" parent="1" source="9xqURl-d2IsDU-9S28Iz-5" target="Ac1Aeya4IcdopPUhW2M2-14">
          <mxGeometry relative="1" as="geometry">
            <mxPoint x="-512" y="230" as="sourcePoint" />
            <mxPoint x="-432" y="320" as="targetPoint" />
          </mxGeometry>
        </mxCell>
        <mxCell id="9xqURl-d2IsDU-9S28Iz-10" style="edgeStyle=orthogonalEdgeStyle;rounded=0;orthogonalLoop=1;jettySize=auto;html=1;fontSize=24;endSize=10;strokeWidth=2;exitX=0;exitY=0;exitDx=205.53000000000003;exitDy=68.85;exitPerimeter=0;entryX=0.5;entryY=1;entryDx=0;entryDy=0;entryPerimeter=0;" edge="1" parent="1" source="Ac1Aeya4IcdopPUhW2M2-14" target="Ac1Aeya4IcdopPUhW2M2-15">
          <mxGeometry relative="1" as="geometry">
            <mxPoint x="-172" y="215" as="sourcePoint" />
            <mxPoint x="158" y="560" as="targetPoint" />
            <Array as="points">
              <mxPoint x="-248" y="485" />
              <mxPoint x="313" y="485" />
            </Array>
          </mxGeometry>
        </mxCell>
        <mxCell id="9xqURl-d2IsDU-9S28Iz-12" value="&lt;font style=&quot;font-size: 16px;&quot;&gt;&lt;b&gt;Calculate Quality Metrics and Perform Checks&lt;/b&gt;&lt;/font&gt;" style="edgeLabel;html=1;align=center;verticalAlign=middle;resizable=0;points=[];labelBackgroundColor=none;" vertex="1" connectable="0" parent="9xqURl-d2IsDU-9S28Iz-10">
          <mxGeometry x="-0.0711" relative="1" as="geometry">
            <mxPoint x="24" y="-15" as="offset" />
          </mxGeometry>
        </mxCell>
      </root>
    </mxGraphModel>
  </diagram>
</mxfile>
